<svg width="546" height="189" viewBox="0 0 546 189" fill="none" xmlns="http://www.w3.org/2000/svg">
<path d="M232.628 81.1153V42.9727C232.628 42.0864 232.831 41.541 233.237 41.3365C233.711 41.132 234.287 41.3024 234.964 41.8478L279.466 83.5696C280.144 84.115 280.889 84.3195 281.701 84.1831C282.582 83.9786 283.022 83.4332 283.022 82.547V12.7039C283.022 11.8177 282.718 11.0678 282.108 10.4542C281.498 9.84067 280.753 9.53389 279.873 9.53389H271.948C271.067 9.53389 270.322 9.84067 269.712 10.4542C269.103 11.0678 268.798 11.8177 268.798 12.7039V51.5624C268.798 52.4487 268.561 52.9941 268.087 53.1986C267.68 53.4031 267.139 53.1986 266.461 52.585L221.858 10.1474C221.248 9.60206 220.503 9.43163 219.622 9.63615C218.81 9.77249 218.403 10.2838 218.403 11.17V81.1153C218.403 82.0016 218.708 82.7515 219.318 83.3651C219.927 83.9786 220.639 84.2854 221.451 84.2854H229.478C230.358 84.2854 231.104 83.9786 231.713 83.3651C232.323 82.7515 232.628 82.0016 232.628 81.1153Z" fill="white"/>
<path fill-rule="evenodd" clip-rule="evenodd" d="M319.081 82.6492C323.755 84.6944 328.733 85.717 334.016 85.717C339.367 85.717 344.38 84.6944 349.053 82.6492C353.727 80.604 357.791 77.843 361.246 74.3662C364.768 70.8213 367.545 66.6968 369.577 61.9929C371.609 57.2889 372.625 52.2442 372.625 46.8585C372.625 41.541 371.609 36.5303 369.577 31.8264C367.545 27.0543 364.768 22.9299 361.246 19.453C357.791 15.908 353.727 13.113 349.053 11.0678C344.38 9.02259 339.367 8 334.016 8C328.733 8 323.755 9.02259 319.081 11.0678C314.407 13.113 310.309 15.908 306.787 19.453C303.332 22.9299 300.589 27.0543 298.557 31.8264C296.525 36.5303 295.509 41.541 295.509 46.8585C295.509 52.2442 296.525 57.2889 298.557 61.9929C300.589 66.6968 303.332 70.8213 306.787 74.3662C310.309 77.843 314.407 80.604 319.081 82.6492ZM324.466 23.5434C327.446 22.1118 330.63 21.396 334.016 21.396C337.403 21.396 340.553 22.1118 343.465 23.5434C346.446 24.9069 349.02 26.7475 351.187 29.0654C353.422 31.3833 355.183 34.1102 356.47 37.2461C357.757 40.3139 358.401 43.518 358.401 46.8585C358.401 50.2671 357.757 53.5054 356.47 56.5731C355.183 59.6409 353.422 62.3678 351.187 64.7539C349.02 67.0717 346.446 68.9465 343.465 70.3781C340.553 71.7416 337.403 72.4233 334.016 72.4233C330.63 72.4233 327.446 71.7416 324.466 70.3781C321.553 68.9465 318.979 67.0717 316.744 64.7539C314.576 62.3678 312.849 59.6409 311.562 56.5731C310.275 53.5054 309.632 50.2671 309.632 46.8585C309.632 43.518 310.275 40.3139 311.562 37.2461C312.849 34.1102 314.576 31.3833 316.744 29.0654C318.979 26.7475 321.553 24.9069 324.466 23.5434Z" fill="white"/>
<path fill-rule="evenodd" clip-rule="evenodd" d="M405.006 82.6492C409.68 84.6944 414.658 85.717 419.942 85.717C425.293 85.717 430.305 84.6944 434.979 82.6492C439.653 80.604 443.717 77.843 447.171 74.3662C450.693 70.8213 453.47 66.6968 455.503 61.9929C457.535 57.2889 458.551 52.2442 458.551 46.8585C458.551 41.541 457.535 36.5303 455.503 31.8264C453.47 27.0543 450.693 22.9299 447.171 19.453C443.717 15.908 439.653 13.113 434.979 11.0678C430.305 9.02259 425.293 8 419.942 8C414.658 8 409.68 9.02259 405.006 11.0678C400.332 13.113 396.235 15.908 392.712 19.453C389.258 22.9299 386.515 27.0543 384.483 31.8264C382.45 36.5303 381.434 41.541 381.434 46.8585C381.434 52.2442 382.45 57.2889 384.483 61.9929C386.515 66.6968 389.258 70.8213 392.712 74.3662C396.235 77.843 400.332 80.604 405.006 82.6492ZM410.391 23.5434C413.371 22.1118 416.555 21.396 419.942 21.396C423.328 21.396 426.478 22.1118 429.391 23.5434C432.371 24.9069 434.945 26.7475 437.113 29.0654C439.348 31.3833 441.109 34.1102 442.396 37.2461C443.683 40.3139 444.326 43.518 444.326 46.8585C444.326 50.2671 443.683 53.5054 442.396 56.5731C441.109 59.6409 439.348 62.3678 437.113 64.7539C434.945 67.0717 432.371 68.9465 429.391 70.3781C426.478 71.7416 423.328 72.4233 419.942 72.4233C416.555 72.4233 413.371 71.7416 410.391 70.3781C407.479 68.9465 404.905 67.0717 402.669 64.7539C400.502 62.3678 398.775 59.6409 397.488 56.5731C396.201 53.5054 395.557 50.2671 395.557 46.8585C395.557 43.518 396.201 40.3139 397.488 37.2461C398.775 34.1102 400.502 31.3833 402.669 29.0654C404.905 26.7475 407.479 24.9069 410.391 23.5434Z" fill="white"/>
<path d="M546 81.1153V11.17C546 10.2838 545.594 9.77249 544.781 9.63615C543.968 9.4998 543.291 9.77249 542.749 10.4542L510.541 50.3353C509.999 50.9489 509.322 51.2557 508.509 51.2557C507.696 51.2557 507.019 50.9489 506.477 50.3353L474.37 10.4542C473.828 9.77249 473.151 9.4998 472.338 9.63615C471.525 9.77249 471.119 10.2838 471.119 11.17V81.1153C471.119 82.0016 471.424 82.7515 472.034 83.3651C472.643 83.9786 473.388 84.2854 474.269 84.2854H482.194C483.074 84.2854 483.819 83.9786 484.429 83.3651C485.039 82.7515 485.343 82.0016 485.343 81.1153V49.6195C485.343 48.7333 485.547 48.222 485.953 48.0856C486.359 47.9493 486.834 48.222 487.375 48.9037L506.578 72.1165C507.12 72.7983 507.764 73.1391 508.509 73.1391C509.322 73.1391 509.999 72.7983 510.541 72.1165L529.845 48.9037C530.387 48.1538 530.827 47.8811 531.166 48.0856C531.572 48.222 531.776 48.7333 531.776 49.6195V81.1153C531.776 82.0016 532.08 82.7515 532.69 83.3651C533.3 83.9786 534.045 84.2854 534.925 84.2854H542.952C543.765 84.2854 544.476 83.9786 545.086 83.3651C545.695 82.7515 546 82.0016 546 81.1153Z" fill="white"/>
<path d="M276.118 166.785C276.806 165.904 277.463 165.023 278.088 164.142C278.526 163.45 278.619 162.758 278.369 162.065C278.119 161.373 277.619 160.87 276.869 160.555L269.929 157.723C269.241 157.409 268.459 157.377 267.584 157.629C266.771 157.881 266.115 158.321 265.614 158.95C265.302 159.265 264.989 159.611 264.676 159.989L263.739 160.933C263.051 161.625 262.332 162.286 261.582 162.915C260.894 163.481 260.143 164.016 259.331 164.52C258.518 165.023 257.674 165.463 256.798 165.841C255.923 166.219 255.048 166.565 254.172 166.879C252.359 167.446 250.483 167.729 248.545 167.729C245.356 167.729 242.418 167.068 239.729 165.747C236.978 164.551 234.633 162.852 232.695 160.649C230.694 158.447 229.1 155.961 227.912 153.192C226.724 150.423 226.13 147.434 226.13 144.225C226.13 141.079 226.724 138.089 227.912 135.258C229.1 132.489 230.694 130.003 232.695 127.801C234.633 125.661 236.978 123.93 239.729 122.609C242.543 121.35 245.481 120.721 248.545 120.721C250.483 120.721 252.359 121.004 254.172 121.571C255.048 121.885 255.923 122.231 256.798 122.609C257.674 122.987 258.518 123.427 259.331 123.93C260.143 124.434 260.894 124.969 261.582 125.535C262.332 126.102 263.051 126.731 263.739 127.423C264.051 127.738 264.364 128.084 264.676 128.461L265.614 129.405C266.115 130.035 266.771 130.475 267.584 130.727C268.459 130.916 269.241 130.853 269.929 130.538L276.869 127.706C277.619 127.392 278.119 126.92 278.369 126.29C278.619 125.598 278.526 124.906 278.088 124.214C276.963 122.515 275.618 120.847 274.055 119.211C272.992 118.141 271.836 117.134 270.585 116.19C269.397 115.183 268.115 114.271 266.74 113.453C264.114 111.88 261.238 110.653 258.111 109.772C254.923 108.891 251.734 108.45 248.545 108.45C243.668 108.45 239.073 109.394 234.759 111.282C230.507 113.17 226.724 115.718 223.41 118.928C220.222 122.263 217.689 126.07 215.814 130.349C213.938 134.691 213 139.317 213 144.225C213 149.133 213.938 153.759 215.814 158.101C217.689 162.443 220.222 166.219 223.41 169.428C226.662 172.7 230.444 175.28 234.759 177.168C239.073 179.056 243.668 180 248.545 180C251.734 180 254.923 179.559 258.111 178.678C259.675 178.238 261.175 177.703 262.613 177.074C264.051 176.445 265.427 175.721 266.74 174.903C269.553 173.267 271.992 171.347 274.055 169.145C274.805 168.39 275.493 167.603 276.118 166.785Z" fill="white"/>
<path fill-rule="evenodd" clip-rule="evenodd" d="M313.734 110.715L281.19 176.13C280.877 176.822 280.846 177.42 281.096 177.923C281.408 178.427 281.971 178.678 282.784 178.678H291.319C292.131 178.678 292.913 178.427 293.663 177.923C294.476 177.42 295.07 176.791 295.445 176.035L298.165 170.466C298.478 169.711 299.04 169.082 299.853 168.578C300.666 168.075 301.479 167.823 302.292 167.823H328.927C329.74 167.823 330.521 168.075 331.272 168.578C332.084 169.082 332.678 169.68 333.054 170.372L335.867 176.035C336.18 176.791 336.743 177.42 337.555 177.923C338.368 178.427 339.181 178.678 339.994 178.678H348.528C349.341 178.678 349.873 178.427 350.123 177.923C350.435 177.42 350.404 176.822 350.029 176.13L317.485 110.715C317.11 109.96 316.485 109.583 315.609 109.583C314.734 109.583 314.109 109.96 313.734 110.715ZM322.549 156.307H308.669C307.856 156.307 307.294 156.056 306.981 155.552C306.668 155.049 306.668 154.419 306.981 153.664L314.39 138.089C314.703 137.334 315.109 136.957 315.609 136.957C316.109 136.957 316.516 137.334 316.828 138.089L324.144 153.664C324.456 154.357 324.456 154.986 324.144 155.552C323.894 156.056 323.362 156.307 322.549 156.307Z" fill="white"/>
<path d="M372.577 135.446V124.214C372.577 123.396 372.858 122.703 373.421 122.137C373.983 121.571 374.671 121.287 375.484 121.287H407.09C407.903 121.287 408.559 121.004 409.06 120.438C409.622 119.872 409.904 119.179 409.904 118.361V112.509C409.904 111.691 409.622 110.999 409.06 110.432C408.559 109.866 407.903 109.583 407.09 109.583H362.354C361.541 109.583 360.853 109.866 360.291 110.432C359.728 110.999 359.447 111.691 359.447 112.509V175.752C359.447 176.57 359.728 177.263 360.291 177.829C360.853 178.395 361.541 178.678 362.354 178.678H369.763C370.576 178.678 371.232 178.395 371.733 177.829C372.295 177.263 372.577 176.57 372.577 175.752V153.476C372.577 152.657 372.858 151.965 373.421 151.399C373.983 150.833 374.671 150.549 375.484 150.549H402.87C403.683 150.549 404.339 150.266 404.839 149.7C405.402 149.133 405.683 148.441 405.683 147.623V141.299C405.683 140.481 405.402 139.789 404.839 139.222C404.339 138.656 403.683 138.373 402.87 138.373H375.484C374.671 138.373 373.983 138.089 373.421 137.523C372.858 136.957 372.577 136.265 372.577 135.446Z" fill="white"/>
<path d="M433.758 135.635V124.214C433.758 123.396 434.039 122.703 434.602 122.137C435.165 121.571 435.852 121.287 436.665 121.287H468.271C469.084 121.287 469.772 121.004 470.335 120.438C470.897 119.872 471.179 119.179 471.179 118.361V112.509C471.179 111.691 470.897 110.999 470.335 110.432C469.772 109.866 469.084 109.583 468.271 109.583H423.535C422.722 109.583 422.034 109.866 421.472 110.432C420.909 110.999 420.628 111.691 420.628 112.509V175.752C420.628 176.57 420.909 177.263 421.472 177.829C422.034 178.395 422.722 178.678 423.535 178.678H468.271C469.084 178.678 469.772 178.395 470.335 177.829C470.897 177.263 471.179 176.57 471.179 175.752V169.711C471.179 168.893 470.897 168.201 470.335 167.635C469.772 167.068 469.084 166.785 468.271 166.785H436.665C435.852 166.785 435.165 166.502 434.602 165.935C434.039 165.369 433.758 164.677 433.758 163.859V153.476C433.758 152.657 434.039 151.965 434.602 151.399C435.165 150.833 435.852 150.549 436.665 150.549H464.051C464.864 150.549 465.552 150.266 466.114 149.7C466.677 149.133 466.958 148.441 466.958 147.623V141.488C466.958 140.67 466.677 139.977 466.114 139.411C465.552 138.845 464.864 138.561 464.051 138.561H436.665C435.852 138.561 435.165 138.278 434.602 137.712C434.039 137.146 433.758 136.453 433.758 135.635Z" fill="white"/>
<path d="M94.5 7.05115C142.768 7.05115 181.949 46.2323 181.949 94.5C181.949 142.768 142.768 181.949 94.5 181.949C46.2323 181.949 7.05115 142.768 7.05115 94.5C7.05115 46.2323 46.2323 7.05115 94.5 7.05115ZM94.5 0C42.3796 0 0 42.3796 0 94.5C0 146.62 42.3796 189 94.5 189C146.62 189 189 146.62 189 94.5C189 42.3796 146.62 0 94.5 0Z" fill="#DBDBDB"/>
<path d="M44.9238 65.4957C44.9238 79.0165 33.9473 89.993 20.4265 89.993C15.7015 89.993 11.1946 88.6119 7.41461 86.2857C8.94115 69.5665 15.2654 54.083 24.9335 41.4346C36.2735 43.5426 44.9238 53.5015 44.9238 65.4957Z" fill="#DBDBDB"/>
<path d="M152.581 150.328C158.724 150.328 163.703 145.348 163.703 139.206C163.703 133.063 158.724 128.084 152.581 128.084C146.439 128.084 141.459 133.063 141.459 139.206C141.459 145.348 146.439 150.328 152.581 150.328Z" fill="#DBDBDB"/>
<path d="M120.451 178.169C102.569 183.621 83.3054 183.185 65.7138 176.933C64.7688 168.646 67.6038 160.068 74.0735 153.89C85.1227 143.276 102.642 143.713 113.182 154.762C119.361 161.231 121.76 169.882 120.451 178.169Z" fill="#DBDBDB"/>
<path d="M107.148 85.1955C128.266 85.1955 145.385 68.0765 145.385 46.9593C145.385 25.8421 128.266 8.72314 107.148 8.72314C86.0312 8.72314 68.9123 25.8421 68.9123 46.9593C68.9123 68.0765 86.0312 85.1955 107.148 85.1955Z" fill="#DBDBDB"/>
</svg>
