<svg width="25" height="25" viewBox="0 0 25 25" fill="none" xmlns="http://www.w3.org/2000/svg">
<g clip-path="url(#clip0_23_487)">
<path d="M24.9436 19.1734C24.6892 19.767 23.6136 20.2032 21.6546 20.5073C21.5538 20.6434 21.4702 21.2244 21.3368 21.6771C21.2575 21.9488 21.0623 22.1101 20.7447 22.1101L20.7302 22.1099C20.2714 22.1099 19.7925 21.8988 18.8331 21.8988C17.5381 21.8988 17.0918 22.1938 16.0863 22.9041C15.0203 23.6579 13.9979 24.3085 12.4717 24.2419C10.9265 24.3559 9.63846 23.4163 8.91355 22.9038C7.90213 22.1888 7.45711 21.8988 6.16741 21.8988C5.24632 21.8988 4.66663 22.1293 4.27034 22.1293C3.87615 22.1293 3.72283 21.889 3.6638 21.6879C3.53182 21.2392 3.44876 20.6497 3.34529 20.5097C2.33558 20.353 0.0586715 19.9558 0.000663684 18.9398C-0.00636756 18.8122 0.0339824 18.6864 0.113974 18.5867C0.193966 18.4869 0.307967 18.4202 0.434111 18.3994C3.83172 17.84 5.36204 14.3515 5.42566 14.2034C5.42928 14.1948 5.43323 14.1866 5.43724 14.1782C5.61854 13.8102 5.65911 13.502 5.5575 13.2625C5.31092 12.6817 4.24539 12.4733 3.7971 12.2959C2.63914 11.8386 2.47801 11.3131 2.54651 10.953C2.66551 10.3262 3.6073 9.94053 4.15794 10.1984C4.59344 10.4026 4.98035 10.5059 5.30769 10.5059C5.55291 10.5059 5.70867 10.4471 5.79402 10.3999C5.69427 8.64522 5.44729 6.1377 6.07171 4.73735C7.72078 1.04019 11.216 0.752881 12.2473 0.752881C12.2934 0.752881 12.6937 0.748535 12.741 0.748535C15.2873 0.748535 17.7339 2.05615 18.9286 4.73501C19.5525 6.13394 19.307 8.6311 19.2067 10.3995C19.284 10.4421 19.4195 10.4943 19.6266 10.504C19.9389 10.49 20.3012 10.3873 20.7042 10.1984C21.0013 10.0595 21.4076 10.0783 21.7042 10.2013L21.7056 10.2018C22.1683 10.367 22.4595 10.7005 22.4668 11.0743C22.4758 11.5502 22.0507 11.9613 21.2032 12.2959C21.0998 12.3367 20.974 12.3767 20.8402 12.4192C20.3618 12.5708 19.639 12.8003 19.4429 13.2625C19.3414 13.502 19.3816 13.8099 19.5631 14.1779C19.5673 14.1861 19.5712 14.1946 19.5747 14.2031C19.6383 14.351 21.1673 17.8388 24.5664 18.3991C24.8803 18.4507 25.1115 18.7837 24.9436 19.1734Z" fill="black"/>
</g>
<defs>
<clipPath id="clip0_23_487">
<rect width="25" height="25" fill="white"/>
</clipPath>
</defs>
</svg>
