<svg width="55" height="55" viewBox="0 0 55 55" fill="none" xmlns="http://www.w3.org/2000/svg">
<path d="M27.5 53.9635C12.9038 53.9635 1.03654 42.0962 1.03654 27.5C1.03654 12.9038 12.9038 1.03654 27.5 1.03654C42.0962 1.03654 53.9635 12.9038 53.9635 27.5C53.9635 42.0962 42.0962 53.9635 27.5 53.9635Z" fill="#595959"/>
<path d="M27.5 2.05192C41.5462 2.05192 52.9481 13.4538 52.9481 27.5C52.9481 41.5462 41.5462 52.9481 27.5 52.9481C13.4538 52.9481 2.05192 41.5462 2.05192 27.5C2.05192 13.4538 13.4538 2.05192 27.5 2.05192ZM27.5 0C12.3327 0 0 12.3327 0 27.5C0 42.6673 12.3327 55 27.5 55C42.6673 55 55 42.6673 55 27.5C55 12.3327 42.6673 0 27.5 0Z" fill="#313131"/>
<path d="M13.0731 19.0595C13.0731 22.9941 9.87885 26.1884 5.94423 26.1884C4.56923 26.1884 3.25769 25.7864 2.15769 25.1095C2.60192 20.2441 4.44231 15.7384 7.25577 12.0576C10.5558 12.6711 13.0731 15.5691 13.0731 19.0595Z" fill="#313131"/>
<path d="M44.4019 43.7464C46.1894 43.7464 47.6385 42.2974 47.6385 40.5099C47.6385 38.7224 46.1894 37.2733 44.4019 37.2733C42.6144 37.2733 41.1654 38.7224 41.1654 40.5099C41.1654 42.2974 42.6144 43.7464 44.4019 43.7464Z" fill="#313131"/>
<path d="M35.0519 51.8483C29.8481 53.4348 24.2423 53.3079 19.1231 51.4887C18.8481 49.0771 19.6731 46.581 21.5558 44.7829C24.7712 41.6944 29.8692 41.8214 32.9365 45.0367C34.7346 46.9194 35.4327 49.4367 35.0519 51.8483Z" fill="#313131"/>
<path d="M31.1808 24.7922C37.326 24.7922 42.3077 19.8105 42.3077 13.6653C42.3077 7.52005 37.326 2.53836 31.1808 2.53836C25.0355 2.53836 20.0538 7.52005 20.0538 13.6653C20.0538 19.8105 25.0355 24.7922 31.1808 24.7922Z" fill="#313131"/>
</svg>
