<svg width="25" height="25" viewBox="0 0 25 25" fill="none" xmlns="http://www.w3.org/2000/svg">
<path d="M12.946 6.88477C9.84058 6.88477 7.33569 9.38965 7.33569 12.4951C7.33569 15.6006 9.84058 18.1055 12.946 18.1055C16.0515 18.1055 18.5564 15.6006 18.5564 12.4951C18.5564 9.38965 16.0515 6.88477 12.946 6.88477ZM12.946 16.1426C10.9392 16.1426 9.29858 14.5068 9.29858 12.4951C9.29858 10.4834 10.9343 8.84766 12.946 8.84766C14.9578 8.84766 16.5935 10.4834 16.5935 12.4951C16.5935 14.5068 14.9529 16.1426 12.946 16.1426ZM20.0945 6.65527C20.0945 7.38281 19.5085 7.96387 18.7859 7.96387C18.0584 7.96387 17.4773 7.37793 17.4773 6.65527C17.4773 5.93262 18.0632 5.34668 18.7859 5.34668C19.5085 5.34668 20.0945 5.93262 20.0945 6.65527ZM23.8103 7.9834C23.7273 6.23047 23.3269 4.67773 22.0427 3.39844C20.7634 2.11914 19.2107 1.71875 17.4578 1.63086C15.6511 1.52832 10.2361 1.52832 8.42944 1.63086C6.6814 1.71387 5.12866 2.11426 3.84448 3.39355C2.5603 4.67285 2.16479 6.22559 2.0769 7.97852C1.97437 9.78516 1.97437 15.2002 2.0769 17.0068C2.15991 18.7598 2.5603 20.3125 3.84448 21.5918C5.12866 22.8711 6.67651 23.2715 8.42944 23.3594C10.2361 23.4619 15.6511 23.4619 17.4578 23.3594C19.2107 23.2764 20.7634 22.876 22.0427 21.5918C23.322 20.3125 23.7224 18.7598 23.8103 17.0068C23.9128 15.2002 23.9128 9.79004 23.8103 7.9834ZM21.4763 18.9453C21.0955 19.9023 20.3582 20.6396 19.3962 21.0254C17.9558 21.5967 14.5378 21.4648 12.946 21.4648C11.3542 21.4648 7.9314 21.5918 6.49585 21.0254C5.53882 20.6445 4.80151 19.9072 4.41577 18.9453C3.84448 17.5049 3.97632 14.0869 3.97632 12.4951C3.97632 10.9033 3.84937 7.48047 4.41577 6.04492C4.79663 5.08789 5.53394 4.35059 6.49585 3.96484C7.93628 3.39355 11.3542 3.52539 12.946 3.52539C14.5378 3.52539 17.9607 3.39844 19.3962 3.96484C20.3533 4.3457 21.0906 5.08301 21.4763 6.04492C22.0476 7.48535 21.9158 10.9033 21.9158 12.4951C21.9158 14.0869 22.0476 17.5098 21.4763 18.9453Z" fill="black"/>
</svg>
