<svg width="249" height="85" viewBox="0 0 249 85" fill="none" xmlns="http://www.w3.org/2000/svg">
<path d="M107.745 35.9386V18.8026C107.745 18.4045 107.836 18.1595 108.019 18.0676C108.233 17.9757 108.492 18.0523 108.797 18.2973L128.831 37.0412C129.136 37.2862 129.471 37.3781 129.837 37.3169C130.233 37.225 130.432 36.9799 130.432 36.5818V5.20411C130.432 4.80595 130.294 4.46905 130.02 4.1934C129.745 3.91776 129.41 3.77994 129.014 3.77994H125.446C125.05 3.77994 124.714 3.91776 124.44 4.1934C124.165 4.46905 124.028 4.80595 124.028 5.20411V22.6617C124.028 23.0598 123.921 23.3049 123.708 23.3967C123.525 23.4886 123.281 23.3967 122.976 23.1211L102.897 4.05558C102.622 3.81056 102.287 3.73399 101.89 3.82588C101.524 3.88713 101.341 4.11684 101.341 4.51499V35.9386C101.341 36.3368 101.479 36.6737 101.753 36.9493C102.028 37.225 102.348 37.3628 102.714 37.3628H106.327C106.723 37.3628 107.059 37.225 107.333 36.9493C107.608 36.6737 107.745 36.3368 107.745 35.9386Z" fill="#282828"/>
<path fill-rule="evenodd" clip-rule="evenodd" d="M146.664 36.6277C148.768 37.5466 151.009 38.006 153.388 38.006C155.797 38.006 158.053 37.5466 160.157 36.6277C162.261 35.7089 164.091 34.4685 165.646 32.9065C167.232 31.3139 168.482 29.4609 169.397 27.3477C170.311 25.2344 170.769 22.968 170.769 20.5484C170.769 18.1595 170.311 15.9084 169.397 13.7951C168.482 11.6512 167.232 9.79821 165.646 8.23621C164.091 6.64359 162.261 5.38787 160.157 4.46905C158.053 3.55023 155.797 3.09082 153.388 3.09082C151.009 3.09082 148.768 3.55023 146.664 4.46905C144.56 5.38787 142.715 6.64359 141.13 8.23621C139.575 9.79821 138.34 11.6512 137.425 13.7951C136.51 15.9084 136.053 18.1595 136.053 20.5484C136.053 22.968 136.51 25.2344 137.425 27.3477C138.34 29.4609 139.575 31.3139 141.13 32.9065C142.715 34.4685 144.56 35.7089 146.664 36.6277ZM149.088 10.0738C150.43 9.43068 151.863 9.10909 153.388 9.10909C154.913 9.10909 156.33 9.43068 157.642 10.0738C158.983 10.6864 160.142 11.5133 161.118 12.5547C162.124 13.596 162.917 14.8211 163.496 16.2299C164.076 17.6082 164.365 19.0477 164.365 20.5484C164.365 22.0798 164.076 23.5346 163.496 24.9128C162.917 26.291 162.124 27.5161 161.118 28.5881C160.142 29.6294 158.983 30.4716 157.642 31.1148C156.33 31.7274 154.913 32.0336 153.388 32.0336C151.863 32.0336 150.43 31.7274 149.088 31.1148C147.777 30.4716 146.619 29.6294 145.612 28.5881C144.636 27.5161 143.859 26.291 143.28 24.9128C142.7 23.5346 142.411 22.0798 142.411 20.5484C142.411 19.0477 142.7 17.6082 143.28 16.2299C143.859 14.8211 144.636 13.596 145.612 12.5547C146.619 11.5133 147.777 10.6864 149.088 10.0738Z" fill="#282828"/>
<path fill-rule="evenodd" clip-rule="evenodd" d="M185.346 36.6277C187.45 37.5466 189.691 38.006 192.07 38.006C194.478 38.006 196.735 37.5466 198.839 36.6277C200.943 35.7089 202.772 34.4685 204.328 32.9065C205.913 31.3139 207.163 29.4609 208.078 27.3477C208.993 25.2344 209.45 22.968 209.45 20.5484C209.45 18.1595 208.993 15.9084 208.078 13.7951C207.163 11.6512 205.913 9.79821 204.328 8.23621C202.772 6.64359 200.943 5.38787 198.839 4.46905C196.735 3.55023 194.478 3.09082 192.07 3.09082C189.691 3.09082 187.45 3.55023 185.346 4.46905C183.242 5.38787 181.397 6.64359 179.811 8.23621C178.256 9.79821 177.021 11.6512 176.107 13.7951C175.192 15.9084 174.734 18.1595 174.734 20.5484C174.734 22.968 175.192 25.2344 176.107 27.3477C177.021 29.4609 178.256 31.3139 179.811 32.9065C181.397 34.4685 183.242 35.7089 185.346 36.6277ZM187.77 10.0738C189.112 9.43068 190.545 9.10909 192.07 9.10909C193.594 9.10909 195.012 9.43068 196.323 10.0738C197.665 10.6864 198.824 11.5133 199.799 12.5547C200.806 13.596 201.599 14.8211 202.178 16.2299C202.757 17.6082 203.047 19.0477 203.047 20.5484C203.047 22.0798 202.757 23.5346 202.178 24.9128C201.599 26.291 200.806 27.5161 199.799 28.5881C198.824 29.6294 197.665 30.4716 196.323 31.1148C195.012 31.7274 193.594 32.0336 192.07 32.0336C190.545 32.0336 189.112 31.7274 187.77 31.1148C186.459 30.4716 185.3 29.6294 184.294 28.5881C183.318 27.5161 182.541 26.291 181.961 24.9128C181.382 23.5346 181.092 22.0798 181.092 20.5484C181.092 19.0477 181.382 17.6082 181.961 16.2299C182.541 14.8211 183.318 13.596 184.294 12.5547C185.3 11.5133 186.459 10.6864 187.77 10.0738Z" fill="#282828"/>
<path d="M248.818 35.9386V4.51499C248.818 4.11684 248.635 3.88713 248.269 3.82588C247.903 3.76462 247.598 3.88713 247.355 4.1934L232.855 22.1104C232.611 22.386 232.306 22.5239 231.94 22.5239C231.575 22.5239 231.27 22.386 231.026 22.1104L216.572 4.1934C216.328 3.88713 216.023 3.76462 215.657 3.82588C215.291 3.88713 215.108 4.11684 215.108 4.51499V35.9386C215.108 36.3368 215.246 36.6737 215.52 36.9493C215.795 37.225 216.13 37.3628 216.526 37.3628H220.094C220.49 37.3628 220.826 37.225 221.1 36.9493C221.375 36.6737 221.512 36.3368 221.512 35.9386V21.7888C221.512 21.3906 221.603 21.1609 221.786 21.0997C221.969 21.0384 222.183 21.1609 222.427 21.4672L231.071 31.8958C231.315 32.2021 231.605 32.3552 231.94 32.3552C232.306 32.3552 232.611 32.2021 232.855 31.8958L241.546 21.4672C241.79 21.1303 241.988 21.0078 242.14 21.0997C242.323 21.1609 242.415 21.3906 242.415 21.7888V35.9386C242.415 36.3368 242.552 36.6737 242.826 36.9493C243.101 37.225 243.436 37.3628 243.833 37.3628H247.446C247.812 37.3628 248.132 37.225 248.407 36.9493C248.681 36.6737 248.818 36.3368 248.818 35.9386Z" fill="#282828"/>
<path d="M127.324 74.4266C127.633 74.0308 127.929 73.635 128.21 73.2392C128.407 72.9282 128.449 72.6172 128.337 72.3062C128.224 71.9952 127.999 71.7691 127.661 71.6277L124.537 70.3555C124.227 70.2141 123.876 70.2 123.481 70.3131C123.116 70.4262 122.82 70.6241 122.595 70.9068C122.454 71.0481 122.313 71.2036 122.173 71.3733L121.75 71.7973C121.441 72.1083 121.117 72.4052 120.779 72.6879C120.47 72.9423 120.132 73.1826 119.766 73.4088C119.4 73.635 119.02 73.8329 118.626 74.0025C118.232 74.1721 117.838 74.3276 117.444 74.469C116.628 74.7234 115.783 74.8506 114.911 74.8506C113.475 74.8506 112.152 74.5538 110.942 73.9601C109.703 73.4229 108.648 72.6596 107.775 71.6701C106.875 70.6806 106.157 69.5639 105.622 68.3199C105.087 67.076 104.82 65.7331 104.82 64.2913C104.82 62.8777 105.087 61.5348 105.622 60.2626C106.157 59.0187 106.875 57.9019 107.775 56.9124C108.648 55.9512 109.703 55.1738 110.942 54.5801C112.209 54.0146 113.531 53.7319 114.911 53.7319C115.783 53.7319 116.628 53.8591 117.444 54.1136C117.838 54.2549 118.232 54.4104 118.626 54.5801C119.02 54.7497 119.4 54.9476 119.766 55.1738C120.132 55.3999 120.47 55.6402 120.779 55.8947C121.117 56.1491 121.441 56.4318 121.75 56.7428C121.891 56.8842 122.032 57.0397 122.173 57.2093L122.595 57.6334C122.82 57.9161 123.116 58.114 123.481 58.2271C123.876 58.3119 124.227 58.2836 124.537 58.1423L127.661 56.87C127.999 56.7287 128.224 56.5166 128.337 56.2339C128.449 55.923 128.407 55.612 128.21 55.301C127.704 54.5377 127.098 53.7885 126.395 53.0534C125.916 52.5728 125.395 52.1204 124.833 51.6964C124.298 51.244 123.721 50.8341 123.102 50.4666C121.919 49.7598 120.625 49.2085 119.217 48.8127C117.782 48.4169 116.346 48.219 114.911 48.219C112.715 48.219 110.646 48.6431 108.704 49.4912C106.79 50.3394 105.087 51.4843 103.596 52.9262C102.16 54.4246 101.02 56.135 100.176 58.0574C99.3313 60.0082 98.9091 62.0861 98.9091 64.2913C98.9091 66.4964 99.3313 68.5744 100.176 70.5251C101.02 72.4758 102.16 74.1721 103.596 75.614C105.059 77.0841 106.762 78.2432 108.704 79.0913C110.646 79.9395 112.715 80.3635 114.911 80.3635C116.346 80.3635 117.782 80.1656 119.217 79.7699C119.921 79.572 120.596 79.3316 121.244 79.0489C121.891 78.7662 122.51 78.4411 123.102 78.0736C124.368 77.3385 125.466 76.4762 126.395 75.4867C126.732 75.1475 127.042 74.7941 127.324 74.4266Z" fill="#282828"/>
<path fill-rule="evenodd" clip-rule="evenodd" d="M144.257 49.2368L129.606 78.6249C129.466 78.9358 129.452 79.2044 129.564 79.4306C129.705 79.6568 129.958 79.7699 130.324 79.7699H134.166C134.532 79.7699 134.884 79.6568 135.222 79.4306C135.588 79.2044 135.855 78.9217 136.024 78.5825L137.248 76.0804C137.389 75.7412 137.642 75.4585 138.008 75.2323C138.374 75.0061 138.74 74.893 139.106 74.893H151.097C151.463 74.893 151.815 75.0061 152.152 75.2323C152.518 75.4585 152.786 75.727 152.954 76.038L154.221 78.5825C154.362 78.9217 154.615 79.2044 154.981 79.4306C155.347 79.6568 155.713 79.7699 156.079 79.7699H159.921C160.287 79.7699 160.526 79.6568 160.639 79.4306C160.779 79.2044 160.765 78.9358 160.596 78.6249L145.946 49.2368C145.777 48.8975 145.495 48.7279 145.101 48.7279C144.707 48.7279 144.426 48.8975 144.257 49.2368ZM148.226 69.7194H141.977C141.611 69.7194 141.358 69.6063 141.217 69.3801C141.076 69.154 141.076 68.8712 141.217 68.532L144.553 61.5348C144.693 61.1956 144.876 61.0259 145.101 61.0259C145.327 61.0259 145.51 61.1956 145.65 61.5348L148.944 68.532C149.084 68.843 149.084 69.1257 148.944 69.3801C148.831 69.6063 148.592 69.7194 148.226 69.7194Z" fill="#282828"/>
<path d="M170.747 60.3474V55.301C170.747 54.9335 170.874 54.6225 171.127 54.368C171.38 54.1136 171.69 53.9864 172.056 53.9864H186.284C186.65 53.9864 186.946 53.8591 187.171 53.6047C187.424 53.3503 187.551 53.0393 187.551 52.6717V50.0425C187.551 49.675 187.424 49.364 187.171 49.1095C186.946 48.8551 186.65 48.7279 186.284 48.7279H166.145C165.779 48.7279 165.469 48.8551 165.216 49.1095C164.963 49.364 164.836 49.675 164.836 50.0425V78.4552C164.836 78.8228 164.963 79.1337 165.216 79.3882C165.469 79.6426 165.779 79.7699 166.145 79.7699H169.48C169.846 79.7699 170.142 79.6426 170.367 79.3882C170.62 79.1337 170.747 78.8228 170.747 78.4552V68.4472C170.747 68.0796 170.874 67.7687 171.127 67.5142C171.38 67.2598 171.69 67.1325 172.056 67.1325H184.384C184.75 67.1325 185.046 67.0053 185.271 66.7509C185.524 66.4964 185.651 66.1855 185.651 65.8179V62.9767C185.651 62.6091 185.524 62.2981 185.271 62.0437C185.046 61.7893 184.75 61.662 184.384 61.662H172.056C171.69 61.662 171.38 61.5348 171.127 61.2804C170.874 61.0259 170.747 60.7149 170.747 60.3474Z" fill="#282828"/>
<path d="M198.289 60.4322V55.301C198.289 54.9335 198.416 54.6225 198.669 54.368C198.923 54.1136 199.232 53.9864 199.598 53.9864H213.826C214.192 53.9864 214.502 53.8591 214.755 53.6047C215.009 53.3503 215.135 53.0393 215.135 52.6717V50.0425C215.135 49.675 215.009 49.364 214.755 49.1095C214.502 48.8551 214.192 48.7279 213.826 48.7279H193.687C193.321 48.7279 193.012 48.8551 192.758 49.1095C192.505 49.364 192.378 49.675 192.378 50.0425V78.4552C192.378 78.8228 192.505 79.1337 192.758 79.3882C193.012 79.6426 193.321 79.7699 193.687 79.7699H213.826C214.192 79.7699 214.502 79.6426 214.755 79.3882C215.009 79.1337 215.135 78.8228 215.135 78.4552V75.7412C215.135 75.3737 215.009 75.0627 214.755 74.8082C214.502 74.5538 214.192 74.4266 213.826 74.4266H199.598C199.232 74.4266 198.923 74.2993 198.669 74.0449C198.416 73.7905 198.289 73.4795 198.289 73.1119V68.4472C198.289 68.0796 198.416 67.7687 198.669 67.5142C198.923 67.2598 199.232 67.1325 199.598 67.1325H211.927C212.292 67.1325 212.602 67.0053 212.855 66.7509C213.109 66.4964 213.235 66.1855 213.235 65.8179V63.0615C213.235 62.6939 213.109 62.383 212.855 62.1285C212.602 61.8741 212.292 61.7468 211.927 61.7468H199.598C199.232 61.7468 198.923 61.6196 198.669 61.3652C198.416 61.1107 198.289 60.7998 198.289 60.4322Z" fill="#282828"/>
<path d="M42.5 83.3981C19.9423 83.3981 1.60192 65.0577 1.60192 42.5C1.60192 19.9423 19.9423 1.60192 42.5 1.60192C65.0577 1.60192 83.3981 19.9423 83.3981 42.5C83.3981 65.0577 65.0577 83.3981 42.5 83.3981Z" fill="#595959"/>
<path d="M42.5 3.17115C64.2077 3.17115 81.8288 20.7923 81.8288 42.5C81.8288 64.2077 64.2077 81.8288 42.5 81.8288C20.7923 81.8288 3.17115 64.2077 3.17115 42.5C3.17115 20.7923 20.7923 3.17115 42.5 3.17115ZM42.5 0C19.0596 0 0 19.0596 0 42.5C0 65.9404 19.0596 85 42.5 85C65.9404 85 85 65.9404 85 42.5C85 19.0596 65.9404 0 42.5 0Z" fill="#313131"/>
<path d="M20.2038 29.4556C20.2038 35.5364 15.2673 40.4729 9.18654 40.4729C7.06154 40.4729 5.03462 39.8518 3.33462 38.8056C4.02115 31.2864 6.86539 24.3229 11.2135 18.6345C16.3135 19.5825 20.2038 24.0614 20.2038 29.4556Z" fill="#313131"/>
<path d="M68.6212 67.6081C71.3836 67.6081 73.6231 65.3686 73.6231 62.6062C73.6231 59.8437 71.3836 57.6042 68.6212 57.6042C65.8587 57.6042 63.6192 59.8437 63.6192 62.6062C63.6192 65.3686 65.8587 67.6081 68.6212 67.6081Z" fill="#313131"/>
<path d="M54.1712 80.1292C46.1288 82.5811 37.4654 82.3849 29.5538 79.5734C29.1288 75.8465 30.4038 71.9888 33.3135 69.2099C38.2827 64.4368 46.1615 64.633 50.9019 69.6022C53.6808 72.5118 54.7596 76.4022 54.1712 80.1292Z" fill="#313131"/>
<path d="M48.1885 38.3152C57.6856 38.3152 65.3846 30.6162 65.3846 21.1191C65.3846 11.6219 57.6856 3.92292 48.1885 3.92292C38.6913 3.92292 30.9923 11.6219 30.9923 21.1191C30.9923 30.6162 38.6913 38.3152 48.1885 38.3152Z" fill="#313131"/>
</svg>
