<svg width="161" height="55" viewBox="0 0 161 55" fill="none" xmlns="http://www.w3.org/2000/svg">
<path d="M69.7173 23.2545V12.1665C69.7173 11.9088 69.7765 11.7503 69.8949 11.6908C70.033 11.6314 70.2007 11.6809 70.3981 11.8395L83.361 23.9679C83.5583 24.1264 83.7754 24.1859 84.0121 24.1463C84.2686 24.0868 84.3969 23.9283 84.3969 23.6706V3.36742C84.3969 3.10979 84.3081 2.8918 84.1305 2.71344C83.953 2.53508 83.7359 2.4459 83.4794 2.4459H81.1709C80.9144 2.4459 80.6974 2.53508 80.5198 2.71344C80.3423 2.8918 80.2535 3.10979 80.2535 3.36742V14.6635C80.2535 14.9211 80.1844 15.0797 80.0463 15.1391C79.9279 15.1986 79.7701 15.1391 79.5728 14.9608L66.5802 2.62426C66.4026 2.46572 66.1856 2.41617 65.9291 2.47563C65.6923 2.51526 65.5739 2.66389 65.5739 2.92152V23.2545C65.5739 23.5121 65.6627 23.7301 65.8403 23.9084C66.0179 24.0868 66.225 24.176 66.4618 24.176H68.7999C69.0564 24.176 69.2734 24.0868 69.451 23.9084C69.6286 23.7301 69.7173 23.5121 69.7173 23.2545Z" fill="#282828"/>
<path fill-rule="evenodd" clip-rule="evenodd" d="M94.9004 23.7004C96.2618 24.2949 97.712 24.5922 99.251 24.5922C100.81 24.5922 102.27 24.2949 103.631 23.7004C104.993 23.1058 106.176 22.3032 107.183 21.2925C108.209 20.262 109.018 19.063 109.61 17.6956C110.201 16.3282 110.497 14.8617 110.497 13.2961C110.497 11.7503 110.201 10.2937 109.61 8.92628C109.018 7.53904 108.209 6.34007 107.183 5.32937C106.176 4.29885 104.993 3.48633 103.631 2.8918C102.27 2.29727 100.81 2 99.251 2C97.712 2 96.2618 2.29727 94.9004 2.8918C93.539 3.48633 92.3453 4.29885 91.3193 5.32937C90.3131 6.34007 89.514 7.53904 88.9221 8.92628C88.3301 10.2937 88.0342 11.7503 88.0342 13.2961C88.0342 14.8617 88.3301 16.3282 88.9221 17.6956C89.514 19.063 90.3131 20.262 91.3193 21.2925C92.3453 22.3032 93.539 23.1058 94.9004 23.7004ZM96.469 6.51843C97.3371 6.10226 98.2645 5.89418 99.251 5.89418C100.238 5.89418 101.155 6.10226 102.003 6.51843C102.872 6.91478 103.621 7.44986 104.253 8.12366C104.904 8.79746 105.417 9.59017 105.792 10.5018C106.167 11.3936 106.354 12.325 106.354 13.2961C106.354 14.287 106.167 15.2283 105.792 16.1201C105.417 17.0119 104.904 17.8046 104.253 18.4982C103.621 19.172 102.872 19.717 102.003 20.1332C101.155 20.5295 100.238 20.7277 99.251 20.7277C98.2645 20.7277 97.3371 20.5295 96.469 20.1332C95.6206 19.717 94.8708 19.172 94.2197 18.4982C93.5883 17.8046 93.0852 17.0119 92.7103 16.1201C92.3354 15.2283 92.148 14.287 92.148 13.2961C92.148 12.325 92.3354 11.3936 92.7103 10.5018C93.0852 9.59017 93.5883 8.79746 94.2197 8.12366C94.8708 7.44986 95.6206 6.91478 96.469 6.51843Z" fill="#282828"/>
<path fill-rule="evenodd" clip-rule="evenodd" d="M119.93 23.7004C121.291 24.2949 122.741 24.5922 124.28 24.5922C125.839 24.5922 127.299 24.2949 128.661 23.7004C130.022 23.1058 131.206 22.3032 132.212 21.2925C133.238 20.262 134.047 19.063 134.639 17.6956C135.231 16.3282 135.527 14.8617 135.527 13.2961C135.527 11.7503 135.231 10.2937 134.639 8.92628C134.047 7.53904 133.238 6.34007 132.212 5.32937C131.206 4.29885 130.022 3.48633 128.661 2.8918C127.299 2.29727 125.839 2 124.28 2C122.741 2 121.291 2.29727 119.93 2.8918C118.568 3.48633 117.375 4.29885 116.349 5.32937C115.342 6.34007 114.543 7.53904 113.951 8.92628C113.359 10.2937 113.063 11.7503 113.063 13.2961C113.063 14.8617 113.359 16.3282 113.951 17.6956C114.543 19.063 115.342 20.262 116.349 21.2925C117.375 22.3032 118.568 23.1058 119.93 23.7004ZM121.498 6.51843C122.366 6.10226 123.294 5.89418 124.28 5.89418C125.267 5.89418 126.184 6.10226 127.033 6.51843C127.901 6.91478 128.651 7.44986 129.282 8.12366C129.933 8.79746 130.446 9.59017 130.821 10.5018C131.196 11.3936 131.383 12.325 131.383 13.2961C131.383 14.287 131.196 15.2283 130.821 16.1201C130.446 17.0119 129.933 17.8046 129.282 18.4982C128.651 19.172 127.901 19.717 127.033 20.1332C126.184 20.5295 125.267 20.7277 124.28 20.7277C123.294 20.7277 122.366 20.5295 121.498 20.1332C120.65 19.717 119.9 19.172 119.249 18.4982C118.618 17.8046 118.115 17.0119 117.74 16.1201C117.365 15.2283 117.177 14.287 117.177 13.2961C117.177 12.325 117.365 11.3936 117.74 10.5018C118.115 9.59017 118.618 8.79746 119.249 8.12366C119.9 7.44986 120.65 6.91478 121.498 6.51843Z" fill="#282828"/>
<path d="M161 23.2545V2.92152C161 2.66389 160.882 2.51526 160.645 2.47563C160.408 2.43599 160.211 2.51526 160.053 2.71344L150.671 14.3068C150.513 14.4851 150.316 14.5743 150.079 14.5743C149.842 14.5743 149.645 14.4851 149.487 14.3068L140.135 2.71344C139.977 2.51526 139.78 2.43599 139.543 2.47563C139.306 2.51526 139.188 2.66389 139.188 2.92152V23.2545C139.188 23.5121 139.277 23.7301 139.454 23.9084C139.632 24.0868 139.849 24.176 140.105 24.176H142.414C142.67 24.176 142.887 24.0868 143.065 23.9084C143.242 23.7301 143.331 23.5121 143.331 23.2545V14.0987C143.331 13.8411 143.39 13.6924 143.509 13.6528C143.627 13.6132 143.765 13.6924 143.923 13.8906L149.517 20.6385C149.675 20.8367 149.862 20.9358 150.079 20.9358C150.316 20.9358 150.513 20.8367 150.671 20.6385L156.294 13.8906C156.452 13.6726 156.58 13.5933 156.679 13.6528C156.797 13.6924 156.857 13.8411 156.857 14.0987V23.2545C156.857 23.5121 156.945 23.7301 157.123 23.9084C157.301 24.0868 157.518 24.176 157.774 24.176H160.112C160.349 24.176 160.556 24.0868 160.734 23.9084C160.911 23.7301 161 23.5121 161 23.2545Z" fill="#282828"/>
<path d="M82.3859 48.1584C82.5862 47.9023 82.7774 47.6462 82.9596 47.3901C83.0871 47.1889 83.1144 46.9877 83.0415 46.7864C82.9687 46.5852 82.823 46.4389 82.6044 46.3474L80.5828 45.5242C80.3824 45.4327 80.1548 45.4236 79.8998 45.4968C79.663 45.5699 79.4718 45.698 79.3261 45.8809C79.235 45.9724 79.144 46.073 79.0529 46.1828L78.7797 46.4571C78.5794 46.6584 78.3699 46.8505 78.1514 47.0334C77.951 47.198 77.7325 47.3535 77.4957 47.4999C77.2589 47.6462 77.0131 47.7743 76.7581 47.884C76.5031 47.9938 76.2481 48.0944 75.9932 48.1859C75.465 48.3505 74.9186 48.4328 74.354 48.4328C73.4251 48.4328 72.5691 48.2407 71.786 47.8566C70.9846 47.509 70.3016 47.0151 69.737 46.3748C69.1542 45.7346 68.6898 45.012 68.3438 44.2071C67.9977 43.4022 67.8247 42.5332 67.8247 41.6003C67.8247 40.6856 67.9977 39.8167 68.3438 38.9935C68.6898 38.1886 69.1542 37.466 69.737 36.8258C70.3016 36.2038 70.9846 35.7007 71.786 35.3166C72.6056 34.9507 73.4616 34.7678 74.354 34.7678C74.9186 34.7678 75.465 34.8501 75.9932 35.0147C76.2481 35.1062 76.5031 35.2068 76.7581 35.3166C77.0131 35.4263 77.2589 35.5544 77.4957 35.7007C77.7325 35.8471 77.951 36.0026 78.1514 36.1672C78.3699 36.3318 78.5794 36.5148 78.7797 36.716C78.8708 36.8075 78.9618 36.9081 79.0529 37.0178L79.3261 37.2922C79.4718 37.4752 79.663 37.6032 79.8998 37.6764C80.1548 37.7313 80.3824 37.713 80.5828 37.6215L82.6044 36.7983C82.823 36.7069 82.9687 36.5697 83.0415 36.3867C83.1144 36.1855 83.0871 35.9843 82.9596 35.783C82.6317 35.2891 82.2402 34.8044 81.7848 34.3287C81.4752 34.0177 81.1383 33.7251 80.774 33.4507C80.428 33.158 80.0546 32.8927 79.6539 32.6549C78.889 32.1976 78.0512 31.8409 77.1406 31.5847C76.2117 31.3286 75.2829 31.2006 74.354 31.2006C72.9334 31.2006 71.5948 31.475 70.3381 32.0238C69.0996 32.5726 67.9977 33.3135 67.0324 34.2464C66.1036 35.216 65.366 36.3227 64.8196 37.5666C64.2732 38.8289 64 40.1734 64 41.6003C64 43.0272 64.2732 44.3717 64.8196 45.634C65.366 46.8962 66.1036 47.9938 67.0324 48.9267C67.9795 49.878 69.0814 50.628 70.3381 51.1768C71.5948 51.7256 72.9334 52 74.354 52C75.2829 52 76.2117 51.8719 77.1406 51.6158C77.5959 51.4878 78.033 51.3323 78.4519 51.1494C78.8708 50.9664 79.2715 50.7561 79.6539 50.5182C80.4735 50.0426 81.1838 49.4847 81.7848 48.8444C82.0034 48.6249 82.2037 48.3962 82.3859 48.1584Z" fill="#282828"/>
<path fill-rule="evenodd" clip-rule="evenodd" d="M93.3428 31.8591L83.863 50.875C83.772 51.0762 83.7628 51.25 83.8357 51.3963C83.9268 51.5427 84.0907 51.6158 84.3274 51.6158H86.8135C87.0503 51.6158 87.2779 51.5427 87.4965 51.3963C87.7332 51.25 87.9063 51.067 88.0155 50.8475L88.8078 49.2286C88.8989 49.0091 89.0628 48.8261 89.2996 48.6798C89.5363 48.5334 89.7731 48.4603 90.0099 48.4603H97.7685C98.0053 48.4603 98.2329 48.5334 98.4515 48.6798C98.6883 48.8261 98.8613 48.9999 98.9706 49.2011L99.7901 50.8475C99.8812 51.067 100.045 51.25 100.282 51.3963C100.519 51.5427 100.755 51.6158 100.992 51.6158H103.478C103.715 51.6158 103.87 51.5427 103.943 51.3963C104.034 51.25 104.025 51.0762 103.915 50.875L94.4356 31.8591C94.3263 31.6396 94.1442 31.5299 93.8892 31.5299C93.6342 31.5299 93.4521 31.6396 93.3428 31.8591ZM95.9108 45.1126H91.8676C91.6308 45.1126 91.4669 45.0394 91.3758 44.8931C91.2847 44.7467 91.2847 44.5638 91.3758 44.3443L93.534 39.8167C93.6251 39.5972 93.7435 39.4874 93.8892 39.4874C94.0349 39.4874 94.1533 39.5972 94.2443 39.8167L96.3752 44.3443C96.4663 44.5455 96.4663 44.7284 96.3752 44.8931C96.3024 45.0394 96.1476 45.1126 95.9108 45.1126Z" fill="#282828"/>
<path d="M110.483 39.0484V35.783C110.483 35.5452 110.565 35.344 110.729 35.1794C110.893 35.0147 111.093 34.9324 111.33 34.9324H120.537C120.774 34.9324 120.965 34.8501 121.11 34.6855C121.274 34.5208 121.356 34.3196 121.356 34.0818V32.3805C121.356 32.1427 121.274 31.9415 121.11 31.7768C120.965 31.6122 120.774 31.5299 120.537 31.5299H107.505C107.269 31.5299 107.068 31.6122 106.904 31.7768C106.741 31.9415 106.659 32.1427 106.659 32.3805V50.7652C106.659 51.003 106.741 51.2042 106.904 51.3689C107.068 51.5335 107.269 51.6158 107.505 51.6158H109.664C109.9 51.6158 110.092 51.5335 110.237 51.3689C110.401 51.2042 110.483 51.003 110.483 50.7652V44.2894C110.483 44.0516 110.565 43.8504 110.729 43.6857C110.893 43.5211 111.093 43.4388 111.33 43.4388H119.307C119.544 43.4388 119.735 43.3564 119.881 43.1918C120.045 43.0272 120.127 42.8259 120.127 42.5881V40.7497C120.127 40.5118 120.045 40.3106 119.881 40.146C119.735 39.9813 119.544 39.899 119.307 39.899H111.33C111.093 39.899 110.893 39.8167 110.729 39.6521C110.565 39.4874 110.483 39.2862 110.483 39.0484Z" fill="#282828"/>
<path d="M128.305 39.1033V35.783C128.305 35.5452 128.387 35.344 128.551 35.1794C128.715 35.0147 128.915 34.9324 129.152 34.9324H138.358C138.595 34.9324 138.795 34.8501 138.959 34.6855C139.123 34.5208 139.205 34.3196 139.205 34.0818V32.3805C139.205 32.1427 139.123 31.9415 138.959 31.7768C138.795 31.6122 138.595 31.5299 138.358 31.5299H125.327C125.09 31.5299 124.89 31.6122 124.726 31.7768C124.562 31.9415 124.48 32.1427 124.48 32.3805V50.7652C124.48 51.003 124.562 51.2042 124.726 51.3689C124.89 51.5335 125.09 51.6158 125.327 51.6158H138.358C138.595 51.6158 138.795 51.5335 138.959 51.3689C139.123 51.2042 139.205 51.003 139.205 50.7652V49.0091C139.205 48.7712 139.123 48.57 138.959 48.4054C138.795 48.2407 138.595 48.1584 138.358 48.1584H129.152C128.915 48.1584 128.715 48.0761 128.551 47.9115C128.387 47.7468 128.305 47.5456 128.305 47.3078V44.2894C128.305 44.0516 128.387 43.8504 128.551 43.6857C128.715 43.5211 128.915 43.4388 129.152 43.4388H137.129C137.366 43.4388 137.566 43.3564 137.73 43.1918C137.894 43.0272 137.976 42.8259 137.976 42.5881V40.8045C137.976 40.5667 137.894 40.3655 137.73 40.2009C137.566 40.0362 137.366 39.9539 137.129 39.9539H129.152C128.915 39.9539 128.715 39.8716 128.551 39.7069C128.387 39.5423 128.305 39.3411 128.305 39.1033Z" fill="#282828"/>
<path d="M27.5 53.9635C12.9038 53.9635 1.03654 42.0962 1.03654 27.5C1.03654 12.9038 12.9038 1.03654 27.5 1.03654C42.0962 1.03654 53.9635 12.9038 53.9635 27.5C53.9635 42.0962 42.0962 53.9635 27.5 53.9635Z" fill="#595959"/>
<path d="M27.5 2.05192C41.5462 2.05192 52.9481 13.4538 52.9481 27.5C52.9481 41.5462 41.5462 52.9481 27.5 52.9481C13.4538 52.9481 2.05192 41.5462 2.05192 27.5C2.05192 13.4538 13.4538 2.05192 27.5 2.05192ZM27.5 0C12.3327 0 0 12.3327 0 27.5C0 42.6673 12.3327 55 27.5 55C42.6673 55 55 42.6673 55 27.5C55 12.3327 42.6673 0 27.5 0Z" fill="#313131"/>
<path d="M13.0731 19.0595C13.0731 22.9941 9.87885 26.1884 5.94423 26.1884C4.56923 26.1884 3.25769 25.7864 2.15769 25.1095C2.60192 20.2441 4.44231 15.7384 7.25577 12.0576C10.5558 12.6711 13.0731 15.5691 13.0731 19.0595Z" fill="#313131"/>
<path d="M44.4019 43.7464C46.1894 43.7464 47.6385 42.2974 47.6385 40.5099C47.6385 38.7224 46.1894 37.2733 44.4019 37.2733C42.6144 37.2733 41.1654 38.7224 41.1654 40.5099C41.1654 42.2974 42.6144 43.7464 44.4019 43.7464Z" fill="#313131"/>
<path d="M35.0519 51.8483C29.8481 53.4348 24.2423 53.3079 19.1231 51.4887C18.8481 49.0771 19.6731 46.581 21.5558 44.7829C24.7712 41.6944 29.8692 41.8214 32.9365 45.0367C34.7346 46.9194 35.4327 49.4367 35.0519 51.8483Z" fill="#313131"/>
<path d="M31.1808 24.7922C37.326 24.7922 42.3077 19.8105 42.3077 13.6653C42.3077 7.52005 37.326 2.53836 31.1808 2.53836C25.0355 2.53836 20.0538 7.52005 20.0538 13.6653C20.0538 19.8105 25.0355 24.7922 31.1808 24.7922Z" fill="#313131"/>
</svg>
