<svg width="274" height="135" viewBox="0 0 274 135" fill="none" xmlns="http://www.w3.org/2000/svg">
<path d="M132.745 60.9386V43.8026C132.745 43.4045 132.836 43.1595 133.019 43.0676C133.233 42.9757 133.492 43.0523 133.797 43.2973L153.831 62.0412C154.136 62.2862 154.471 62.3781 154.837 62.3169C155.233 62.225 155.432 61.9799 155.432 61.5818V30.2041C155.432 29.806 155.294 29.469 155.02 29.1934C154.745 28.9178 154.41 28.7799 154.014 28.7799H150.446C150.05 28.7799 149.714 28.9178 149.44 29.1934C149.165 29.469 149.028 29.806 149.028 30.2041V47.6617C149.028 48.0598 148.921 48.3049 148.708 48.3967C148.525 48.4886 148.281 48.3967 147.976 48.1211L127.897 29.0556C127.622 28.8106 127.287 28.734 126.89 28.8259C126.524 28.8871 126.341 29.1168 126.341 29.515V60.9386C126.341 61.3368 126.479 61.6737 126.753 61.9493C127.028 62.225 127.348 62.3628 127.714 62.3628H131.327C131.723 62.3628 132.059 62.225 132.333 61.9493C132.608 61.6737 132.745 61.3368 132.745 60.9386Z" fill="white"/>
<path fill-rule="evenodd" clip-rule="evenodd" d="M171.664 61.6277C173.768 62.5466 176.009 63.006 178.388 63.006C180.797 63.006 183.053 62.5466 185.157 61.6277C187.261 60.7089 189.091 59.4685 190.646 57.9065C192.232 56.3139 193.482 54.4609 194.397 52.3477C195.311 50.2344 195.769 47.968 195.769 45.5484C195.769 43.1595 195.311 40.9084 194.397 38.7951C193.482 36.6512 192.232 34.7982 190.646 33.2362C189.091 31.6436 187.261 30.3879 185.157 29.4691C183.053 28.5502 180.797 28.0908 178.388 28.0908C176.009 28.0908 173.768 28.5502 171.664 29.4691C169.56 30.3879 167.715 31.6436 166.13 33.2362C164.575 34.7982 163.34 36.6512 162.425 38.7951C161.51 40.9084 161.053 43.1595 161.053 45.5484C161.053 47.968 161.51 50.2344 162.425 52.3477C163.34 54.4609 164.575 56.3139 166.13 57.9065C167.715 59.4685 169.56 60.7089 171.664 61.6277ZM174.088 35.0738C175.43 34.4307 176.863 34.1091 178.388 34.1091C179.913 34.1091 181.33 34.4307 182.642 35.0738C183.983 35.6864 185.142 36.5133 186.118 37.5547C187.124 38.596 187.917 39.8211 188.496 41.2299C189.076 42.6082 189.365 44.0477 189.365 45.5484C189.365 47.0798 189.076 48.5346 188.496 49.9128C187.917 51.291 187.124 52.5161 186.118 53.5881C185.142 54.6294 183.983 55.4716 182.642 56.1148C181.33 56.7274 179.913 57.0336 178.388 57.0336C176.863 57.0336 175.43 56.7274 174.088 56.1148C172.777 55.4716 171.619 54.6294 170.612 53.5881C169.636 52.5161 168.859 51.291 168.28 49.9128C167.7 48.5346 167.411 47.0798 167.411 45.5484C167.411 44.0477 167.7 42.6082 168.28 41.2299C168.859 39.8211 169.636 38.596 170.612 37.5547C171.619 36.5133 172.777 35.6864 174.088 35.0738Z" fill="white"/>
<path fill-rule="evenodd" clip-rule="evenodd" d="M210.346 61.6277C212.45 62.5466 214.691 63.006 217.07 63.006C219.478 63.006 221.735 62.5466 223.839 61.6277C225.943 60.7089 227.772 59.4685 229.328 57.9065C230.913 56.3139 232.163 54.4609 233.078 52.3477C233.993 50.2344 234.45 47.968 234.45 45.5484C234.45 43.1595 233.993 40.9084 233.078 38.7951C232.163 36.6512 230.913 34.7982 229.328 33.2362C227.772 31.6436 225.943 30.3879 223.839 29.4691C221.735 28.5502 219.478 28.0908 217.07 28.0908C214.691 28.0908 212.45 28.5502 210.346 29.4691C208.242 30.3879 206.397 31.6436 204.811 33.2362C203.256 34.7982 202.021 36.6512 201.107 38.7951C200.192 40.9084 199.734 43.1595 199.734 45.5484C199.734 47.968 200.192 50.2344 201.107 52.3477C202.021 54.4609 203.256 56.3139 204.811 57.9065C206.397 59.4685 208.242 60.7089 210.346 61.6277ZM212.77 35.0738C214.112 34.4307 215.545 34.1091 217.07 34.1091C218.594 34.1091 220.012 34.4307 221.323 35.0738C222.665 35.6864 223.824 36.5133 224.799 37.5547C225.806 38.596 226.599 39.8211 227.178 41.2299C227.757 42.6082 228.047 44.0477 228.047 45.5484C228.047 47.0798 227.757 48.5346 227.178 49.9128C226.599 51.291 225.806 52.5161 224.799 53.5881C223.824 54.6294 222.665 55.4716 221.323 56.1148C220.012 56.7274 218.594 57.0336 217.07 57.0336C215.545 57.0336 214.112 56.7274 212.77 56.1148C211.459 55.4716 210.3 54.6294 209.294 53.5881C208.318 52.5161 207.541 51.291 206.961 49.9128C206.382 48.5346 206.092 47.0798 206.092 45.5484C206.092 44.0477 206.382 42.6082 206.961 41.2299C207.541 39.8211 208.318 38.596 209.294 37.5547C210.3 36.5133 211.459 35.6864 212.77 35.0738Z" fill="white"/>
<path d="M273.818 60.9386V29.515C273.818 29.1168 273.635 28.8871 273.269 28.8259C272.903 28.7646 272.598 28.8871 272.355 29.1934L257.855 47.1104C257.611 47.386 257.306 47.5239 256.94 47.5239C256.575 47.5239 256.27 47.386 256.026 47.1104L241.572 29.1934C241.328 28.8871 241.023 28.7646 240.657 28.8259C240.291 28.8871 240.108 29.1168 240.108 29.515V60.9386C240.108 61.3368 240.246 61.6737 240.52 61.9493C240.795 62.225 241.13 62.3628 241.526 62.3628H245.094C245.49 62.3628 245.826 62.225 246.1 61.9493C246.375 61.6737 246.512 61.3368 246.512 60.9386V46.7888C246.512 46.3906 246.603 46.1609 246.786 46.0997C246.969 46.0384 247.183 46.1609 247.427 46.4672L256.071 56.8958C256.315 57.2021 256.605 57.3552 256.94 57.3552C257.306 57.3552 257.611 57.2021 257.855 56.8958L266.546 46.4672C266.79 46.1303 266.988 46.0078 267.14 46.0997C267.323 46.1609 267.415 46.3906 267.415 46.7888V60.9386C267.415 61.3368 267.552 61.6737 267.826 61.9493C268.101 62.225 268.436 62.3628 268.833 62.3628H272.446C272.812 62.3628 273.132 62.225 273.407 61.9493C273.681 61.6737 273.818 61.3368 273.818 60.9386Z" fill="white"/>
<path d="M152.324 99.4266C152.633 99.0308 152.929 98.635 153.21 98.2392C153.407 97.9282 153.449 97.6172 153.337 97.3062C153.224 96.9952 152.999 96.7691 152.661 96.6277L149.537 95.3555C149.227 95.2141 148.876 95.2 148.481 95.3131C148.116 95.4262 147.82 95.6241 147.595 95.9068C147.454 96.0481 147.313 96.2036 147.173 96.3733L146.75 96.7973C146.441 97.1083 146.117 97.4052 145.779 97.6879C145.47 97.9423 145.132 98.1826 144.766 98.4088C144.4 98.635 144.02 98.8329 143.626 99.0025C143.232 99.1721 142.838 99.3276 142.444 99.469C141.628 99.7234 140.783 99.8506 139.911 99.8506C138.475 99.8506 137.152 99.5538 135.942 98.9601C134.703 98.4229 133.648 97.6596 132.775 96.6701C131.875 95.6806 131.157 94.5639 130.622 93.3199C130.087 92.076 129.82 90.7331 129.82 89.2913C129.82 87.8777 130.087 86.5348 130.622 85.2626C131.157 84.0187 131.875 82.9019 132.775 81.9124C133.648 80.9512 134.703 80.1738 135.942 79.5801C137.209 79.0146 138.531 78.7319 139.911 78.7319C140.783 78.7319 141.628 78.8591 142.444 79.1136C142.838 79.2549 143.232 79.4104 143.626 79.5801C144.02 79.7497 144.4 79.9476 144.766 80.1738C145.132 80.3999 145.47 80.6402 145.779 80.8947C146.117 81.1491 146.441 81.4318 146.75 81.7428C146.891 81.8842 147.032 82.0397 147.173 82.2093L147.595 82.6334C147.82 82.9161 148.116 83.114 148.481 83.2271C148.876 83.3119 149.227 83.2836 149.537 83.1423L152.661 81.87C152.999 81.7287 153.224 81.5166 153.337 81.2339C153.449 80.923 153.407 80.612 153.21 80.301C152.704 79.5377 152.098 78.7885 151.395 78.0534C150.916 77.5728 150.395 77.1204 149.833 76.6964C149.298 76.244 148.721 75.8341 148.102 75.4666C146.919 74.7598 145.625 74.2085 144.217 73.8127C142.782 73.4169 141.346 73.219 139.911 73.219C137.715 73.219 135.646 73.6431 133.704 74.4912C131.79 75.3394 130.087 76.4843 128.596 77.9262C127.16 79.4246 126.02 81.135 125.176 83.0574C124.331 85.0082 123.909 87.0861 123.909 89.2913C123.909 91.4964 124.331 93.5744 125.176 95.5251C126.02 97.4758 127.16 99.1721 128.596 100.614C130.059 102.084 131.762 103.243 133.704 104.091C135.646 104.939 137.715 105.364 139.911 105.364C141.346 105.364 142.782 105.166 144.217 104.77C144.921 104.572 145.596 104.332 146.244 104.049C146.891 103.766 147.51 103.441 148.102 103.074C149.368 102.339 150.466 101.476 151.395 100.487C151.732 100.147 152.042 99.7941 152.324 99.4266Z" fill="white"/>
<path fill-rule="evenodd" clip-rule="evenodd" d="M169.257 74.2368L154.606 103.625C154.466 103.936 154.452 104.204 154.564 104.431C154.705 104.657 154.958 104.77 155.324 104.77H159.166C159.532 104.77 159.884 104.657 160.222 104.431C160.588 104.204 160.855 103.922 161.024 103.582L162.248 101.08C162.389 100.741 162.642 100.458 163.008 100.232C163.374 100.006 163.74 99.893 164.106 99.893H176.097C176.463 99.893 176.815 100.006 177.152 100.232C177.518 100.458 177.786 100.727 177.954 101.038L179.221 103.582C179.362 103.922 179.615 104.204 179.981 104.431C180.347 104.657 180.713 104.77 181.079 104.77H184.921C185.287 104.77 185.526 104.657 185.639 104.431C185.779 104.204 185.765 103.936 185.596 103.625L170.946 74.2368C170.777 73.8975 170.495 73.7279 170.101 73.7279C169.707 73.7279 169.426 73.8975 169.257 74.2368ZM173.226 94.7194H166.977C166.611 94.7194 166.358 94.6063 166.217 94.3801C166.076 94.154 166.076 93.8712 166.217 93.532L169.553 86.5348C169.693 86.1956 169.876 86.0259 170.101 86.0259C170.327 86.0259 170.51 86.1956 170.65 86.5348L173.944 93.532C174.084 93.843 174.084 94.1257 173.944 94.3801C173.831 94.6063 173.592 94.7194 173.226 94.7194Z" fill="white"/>
<path d="M195.747 85.3474V80.301C195.747 79.9335 195.874 79.6225 196.127 79.368C196.38 79.1136 196.69 78.9864 197.056 78.9864H211.284C211.65 78.9864 211.946 78.8591 212.171 78.6047C212.424 78.3503 212.551 78.0393 212.551 77.6717V75.0425C212.551 74.675 212.424 74.364 212.171 74.1095C211.946 73.8551 211.65 73.7279 211.284 73.7279H191.145C190.779 73.7279 190.469 73.8551 190.216 74.1095C189.963 74.364 189.836 74.675 189.836 75.0425V103.455C189.836 103.823 189.963 104.134 190.216 104.388C190.469 104.643 190.779 104.77 191.145 104.77H194.48C194.846 104.77 195.142 104.643 195.367 104.388C195.62 104.134 195.747 103.823 195.747 103.455V93.4472C195.747 93.0796 195.874 92.7687 196.127 92.5142C196.38 92.2598 196.69 92.1325 197.056 92.1325H209.384C209.75 92.1325 210.046 92.0053 210.271 91.7509C210.524 91.4964 210.651 91.1855 210.651 90.8179V87.9767C210.651 87.6091 210.524 87.2981 210.271 87.0437C210.046 86.7893 209.75 86.662 209.384 86.662H197.056C196.69 86.662 196.38 86.5348 196.127 86.2804C195.874 86.0259 195.747 85.7149 195.747 85.3474Z" fill="white"/>
<path d="M223.289 85.4322V80.301C223.289 79.9335 223.416 79.6225 223.669 79.368C223.923 79.1136 224.232 78.9864 224.598 78.9864H238.826C239.192 78.9864 239.502 78.8591 239.755 78.6047C240.009 78.3503 240.135 78.0393 240.135 77.6717V75.0425C240.135 74.675 240.009 74.364 239.755 74.1095C239.502 73.8551 239.192 73.7279 238.826 73.7279H218.687C218.321 73.7279 218.012 73.8551 217.758 74.1095C217.505 74.364 217.378 74.675 217.378 75.0425V103.455C217.378 103.823 217.505 104.134 217.758 104.388C218.012 104.643 218.321 104.77 218.687 104.77H238.826C239.192 104.77 239.502 104.643 239.755 104.388C240.009 104.134 240.135 103.823 240.135 103.455V100.741C240.135 100.374 240.009 100.063 239.755 99.8082C239.502 99.5538 239.192 99.4266 238.826 99.4266H224.598C224.232 99.4266 223.923 99.2993 223.669 99.0449C223.416 98.7905 223.289 98.4795 223.289 98.1119V93.4472C223.289 93.0796 223.416 92.7687 223.669 92.5142C223.923 92.2598 224.232 92.1325 224.598 92.1325H236.927C237.292 92.1325 237.602 92.0053 237.855 91.7509C238.109 91.4964 238.235 91.1855 238.235 90.8179V88.0615C238.235 87.6939 238.109 87.383 237.855 87.1285C237.602 86.8741 237.292 86.7468 236.927 86.7468H224.598C224.232 86.7468 223.923 86.6196 223.669 86.3652C223.416 86.1107 223.289 85.7998 223.289 85.4322Z" fill="white"/>
<g filter="url(#filter0_d_276_222)">
<path d="M67.5 108.398C44.9423 108.398 26.6019 90.0577 26.6019 67.5C26.6019 44.9423 44.9423 26.6019 67.5 26.6019C90.0577 26.6019 108.398 44.9423 108.398 67.5C108.398 90.0577 90.0577 108.398 67.5 108.398Z" fill="white"/>
<path d="M67.5 28.1712C89.2077 28.1712 106.829 45.7923 106.829 67.5C106.829 89.2077 89.2077 106.829 67.5 106.829C45.7923 106.829 28.1712 89.2077 28.1712 67.5C28.1712 45.7923 45.7923 28.1712 67.5 28.1712ZM67.5 25C44.0596 25 25 44.0596 25 67.5C25 90.9404 44.0596 110 67.5 110C90.9404 110 110 90.9404 110 67.5C110 44.0596 90.9404 25 67.5 25Z" fill="#DBDBDB"/>
<path d="M45.2039 54.4557C45.2039 60.5364 40.2673 65.473 34.1866 65.473C32.0616 65.473 30.0346 64.8518 28.3347 63.8057C29.0212 56.2864 31.8654 49.323 36.2135 43.6345C41.3135 44.5826 45.2039 49.0614 45.2039 54.4557Z" fill="#DBDBDB"/>
<path d="M93.6212 92.6079C96.3837 92.6079 98.6231 90.3684 98.6231 87.6059C98.6231 84.8435 96.3837 82.604 93.6212 82.604C90.8587 82.604 88.6193 84.8435 88.6193 87.6059C88.6193 90.3684 90.8587 92.6079 93.6212 92.6079Z" fill="#DBDBDB"/>
<path d="M79.1711 105.129C71.1288 107.581 62.4654 107.385 54.5538 104.573C54.1288 100.846 55.4038 96.9884 58.3134 94.2095C63.2827 89.4364 71.1615 89.6326 75.9019 94.6018C78.6807 97.5114 79.7596 101.402 79.1711 105.129Z" fill="#DBDBDB"/>
<path d="M73.1884 63.3156C82.6856 63.3156 90.3846 55.6166 90.3846 46.1194C90.3846 36.6222 82.6856 28.9233 73.1884 28.9233C63.6913 28.9233 55.9923 36.6222 55.9923 46.1194C55.9923 55.6166 63.6913 63.3156 73.1884 63.3156Z" fill="#DBDBDB"/>
</g>
<defs>
<filter id="filter0_d_276_222" x="0" y="0" width="135" height="135" filterUnits="userSpaceOnUse" color-interpolation-filters="sRGB">
<feFlood flood-opacity="0" result="BackgroundImageFix"/>
<feColorMatrix in="SourceAlpha" type="matrix" values="0 0 0 0 0 0 0 0 0 0 0 0 0 0 0 0 0 0 127 0" result="hardAlpha"/>
<feOffset/>
<feGaussianBlur stdDeviation="12.5"/>
<feComposite in2="hardAlpha" operator="out"/>
<feColorMatrix type="matrix" values="0 0 0 0 0.992157 0 0 0 0 1 0 0 0 0 0.623529 0 0 0 0.3 0"/>
<feBlend mode="normal" in2="BackgroundImageFix" result="effect1_dropShadow_276_222"/>
<feBlend mode="normal" in="SourceGraphic" in2="effect1_dropShadow_276_222" result="shape"/>
</filter>
</defs>
</svg>
