<svg width="25" height="25" viewBox="0 0 25 25" fill="none" xmlns="http://www.w3.org/2000/svg">
<path d="M24.9438 19.1734C24.6893 19.767 23.6137 20.2032 21.6547 20.5073C21.5539 20.6434 21.4704 21.2244 21.337 21.6771C21.2576 21.9488 21.0624 22.1101 20.7448 22.1101L20.7303 22.1099C20.2715 22.1099 19.7926 21.8988 18.8332 21.8988C17.5382 21.8988 17.0919 22.1938 16.0864 22.9041C15.0204 23.6579 13.998 24.3085 12.4718 24.2419C10.9266 24.3559 9.63858 23.4163 8.91368 22.9038C7.90225 22.1888 7.45723 21.8988 6.16753 21.8988C5.24644 21.8988 4.66675 22.1293 4.27046 22.1293C3.87627 22.1293 3.72295 21.889 3.66392 21.6879C3.53194 21.2392 3.44888 20.6497 3.34541 20.5097C2.3357 20.353 0.0587936 19.9558 0.000785754 18.9398C-0.00624549 18.8122 0.0341045 18.6864 0.114096 18.5867C0.194088 18.4869 0.308089 18.4202 0.434233 18.3994C3.83184 17.84 5.36216 14.3515 5.42579 14.2034C5.4294 14.1948 5.43335 14.1866 5.43736 14.1782C5.61866 13.8102 5.65923 13.502 5.55762 13.2625C5.31104 12.6817 4.24551 12.4733 3.79722 12.2959C2.63926 11.8386 2.47813 11.3131 2.54664 10.953C2.66563 10.3262 3.60743 9.94053 4.15806 10.1984C4.59356 10.4026 4.98047 10.5059 5.30782 10.5059C5.55303 10.5059 5.70879 10.4471 5.79415 10.3999C5.69439 8.64522 5.44742 6.1377 6.07183 4.73735C7.7209 1.04019 11.2162 0.752881 12.2475 0.752881C12.2936 0.752881 12.6938 0.748535 12.7411 0.748535C15.2874 0.748535 17.734 2.05615 18.9288 4.73501C19.5526 6.13394 19.3071 8.6311 19.2068 10.3995C19.2841 10.4421 19.4196 10.4943 19.6267 10.504C19.9391 10.49 20.3013 10.3873 20.7043 10.1984C21.0014 10.0595 21.4077 10.0783 21.7043 10.2013L21.7057 10.2018C22.1684 10.367 22.4596 10.7005 22.4669 11.0743C22.4759 11.5502 22.0508 11.9613 21.2033 12.2959C21.0999 12.3367 20.9741 12.3767 20.8403 12.4192C20.362 12.5708 19.6392 12.8003 19.4431 13.2625C19.3416 13.502 19.3817 13.8099 19.5632 14.1779C19.5674 14.1861 19.5713 14.1946 19.5749 14.2031C19.6384 14.351 21.1674 17.8388 24.5666 18.3991C24.8804 18.4507 25.1116 18.7837 24.9438 19.1734Z" fill="white"/>
</svg>
