<svg width="22" height="23" viewBox="0 0 22 23" fill="none" xmlns="http://www.w3.org/2000/svg">
<path d="M10.946 5.88477C7.84058 5.88477 5.33569 8.38965 5.33569 11.4951C5.33569 14.6006 7.84058 17.1055 10.946 17.1055C14.0515 17.1055 16.5564 14.6006 16.5564 11.4951C16.5564 8.38965 14.0515 5.88477 10.946 5.88477ZM10.946 15.1426C8.93921 15.1426 7.29858 13.5068 7.29858 11.4951C7.29858 9.4834 8.93433 7.84766 10.946 7.84766C12.9578 7.84766 14.5935 9.4834 14.5935 11.4951C14.5935 13.5068 12.9529 15.1426 10.946 15.1426ZM18.0945 5.65527C18.0945 6.38281 17.5085 6.96387 16.7859 6.96387C16.0584 6.96387 15.4773 6.37793 15.4773 5.65527C15.4773 4.93262 16.0632 4.34668 16.7859 4.34668C17.5085 4.34668 18.0945 4.93262 18.0945 5.65527ZM21.8103 6.9834C21.7273 5.23047 21.3269 3.67773 20.0427 2.39844C18.7634 1.11914 17.2107 0.71875 15.4578 0.630859C13.6511 0.52832 8.23608 0.52832 6.42944 0.630859C4.6814 0.713867 3.12866 1.11426 1.84448 2.39355C0.560303 3.67285 0.164795 5.22559 0.0769043 6.97852C-0.0256348 8.78516 -0.0256348 14.2002 0.0769043 16.0068C0.159912 17.7598 0.560303 19.3125 1.84448 20.5918C3.12866 21.8711 4.67651 22.2715 6.42944 22.3594C8.23608 22.4619 13.6511 22.4619 15.4578 22.3594C17.2107 22.2764 18.7634 21.876 20.0427 20.5918C21.322 19.3125 21.7224 17.7598 21.8103 16.0068C21.9128 14.2002 21.9128 8.79004 21.8103 6.9834ZM19.4763 17.9453C19.0955 18.9023 18.3582 19.6396 17.3962 20.0254C15.9558 20.5967 12.5378 20.4648 10.946 20.4648C9.35425 20.4648 5.9314 20.5918 4.49585 20.0254C3.53882 19.6445 2.80151 18.9072 2.41577 17.9453C1.84448 16.5049 1.97632 13.0869 1.97632 11.4951C1.97632 9.90332 1.84937 6.48047 2.41577 5.04492C2.79663 4.08789 3.53394 3.35059 4.49585 2.96484C5.93628 2.39355 9.35425 2.52539 10.946 2.52539C12.5378 2.52539 15.9607 2.39844 17.3962 2.96484C18.3533 3.3457 19.0906 4.08301 19.4763 5.04492C20.0476 6.48535 19.9158 9.90332 19.9158 11.4951C19.9158 13.0869 20.0476 16.5098 19.4763 17.9453Z" fill="white"/>
</svg>
