<svg width="186" height="105" viewBox="0 0 186 105" fill="none" xmlns="http://www.w3.org/2000/svg">
<path d="M94.7173 48.2545V37.1665C94.7173 36.9088 94.7765 36.7503 94.8949 36.6908C95.033 36.6314 95.2007 36.6809 95.3981 36.8395L108.361 48.9679C108.558 49.1264 108.775 49.1859 109.012 49.1463C109.269 49.0868 109.397 48.9283 109.397 48.6706V28.3674C109.397 28.1098 109.308 27.8918 109.131 27.7134C108.953 27.5351 108.736 27.4459 108.479 27.4459H106.171C105.914 27.4459 105.697 27.5351 105.52 27.7134C105.342 27.8918 105.253 28.1098 105.253 28.3674V39.6635C105.253 39.9211 105.184 40.0797 105.046 40.1391C104.928 40.1986 104.77 40.1391 104.573 39.9608L91.5802 27.6243C91.4026 27.4657 91.1856 27.4162 90.9291 27.4756C90.6923 27.5153 90.5739 27.6639 90.5739 27.9215V48.2545C90.5739 48.5121 90.6627 48.7301 90.8403 48.9084C91.0179 49.0868 91.225 49.176 91.4618 49.176H93.7999C94.0564 49.176 94.2734 49.0868 94.451 48.9084C94.6286 48.7301 94.7173 48.5121 94.7173 48.2545Z" fill="white"/>
<path fill-rule="evenodd" clip-rule="evenodd" d="M119.9 48.7004C121.262 49.2949 122.712 49.5922 124.251 49.5922C125.81 49.5922 127.27 49.2949 128.631 48.7004C129.993 48.1058 131.176 47.3032 132.183 46.2925C133.209 45.262 134.018 44.063 134.61 42.6956C135.201 41.3282 135.497 39.8617 135.497 38.2961C135.497 36.7503 135.201 35.2937 134.61 33.9263C134.018 32.539 133.209 31.3401 132.183 30.3294C131.176 29.2989 129.993 28.4863 128.631 27.8918C127.27 27.2973 125.81 27 124.251 27C122.712 27 121.262 27.2973 119.9 27.8918C118.539 28.4863 117.345 29.2989 116.319 30.3294C115.313 31.3401 114.514 32.539 113.922 33.9263C113.33 35.2937 113.034 36.7503 113.034 38.2961C113.034 39.8617 113.33 41.3282 113.922 42.6956C114.514 44.063 115.313 45.262 116.319 46.2925C117.345 47.3032 118.539 48.1058 119.9 48.7004ZM121.469 31.5184C122.337 31.1023 123.264 30.8942 124.251 30.8942C125.238 30.8942 126.155 31.1023 127.003 31.5184C127.872 31.9148 128.621 32.4499 129.253 33.1237C129.904 33.7975 130.417 34.5902 130.792 35.5018C131.167 36.3936 131.354 37.325 131.354 38.2961C131.354 39.287 131.167 40.2283 130.792 41.1201C130.417 42.0119 129.904 42.8046 129.253 43.4982C128.621 44.172 127.872 44.717 127.003 45.1332C126.155 45.5295 125.238 45.7277 124.251 45.7277C123.264 45.7277 122.337 45.5295 121.469 45.1332C120.621 44.717 119.871 44.172 119.22 43.4982C118.588 42.8046 118.085 42.0119 117.71 41.1201C117.335 40.2283 117.148 39.287 117.148 38.2961C117.148 37.325 117.335 36.3936 117.71 35.5018C118.085 34.5902 118.588 33.7975 119.22 33.1237C119.871 32.4499 120.621 31.9148 121.469 31.5184Z" fill="white"/>
<path fill-rule="evenodd" clip-rule="evenodd" d="M144.93 48.7004C146.291 49.2949 147.741 49.5922 149.28 49.5922C150.839 49.5922 152.299 49.2949 153.661 48.7004C155.022 48.1058 156.206 47.3032 157.212 46.2925C158.238 45.262 159.047 44.063 159.639 42.6956C160.231 41.3282 160.527 39.8617 160.527 38.2961C160.527 36.7503 160.231 35.2937 159.639 33.9263C159.047 32.539 158.238 31.3401 157.212 30.3294C156.206 29.2989 155.022 28.4863 153.661 27.8918C152.299 27.2973 150.839 27 149.28 27C147.741 27 146.291 27.2973 144.93 27.8918C143.568 28.4863 142.375 29.2989 141.349 30.3294C140.342 31.3401 139.543 32.539 138.951 33.9263C138.359 35.2937 138.063 36.7503 138.063 38.2961C138.063 39.8617 138.359 41.3282 138.951 42.6956C139.543 44.063 140.342 45.262 141.349 46.2925C142.375 47.3032 143.568 48.1058 144.93 48.7004ZM146.498 31.5184C147.366 31.1023 148.294 30.8942 149.28 30.8942C150.267 30.8942 151.184 31.1023 152.033 31.5184C152.901 31.9148 153.651 32.4499 154.282 33.1237C154.933 33.7975 155.446 34.5902 155.821 35.5018C156.196 36.3936 156.383 37.325 156.383 38.2961C156.383 39.287 156.196 40.2283 155.821 41.1201C155.446 42.0119 154.933 42.8046 154.282 43.4982C153.651 44.172 152.901 44.717 152.033 45.1332C151.184 45.5295 150.267 45.7277 149.28 45.7277C148.294 45.7277 147.366 45.5295 146.498 45.1332C145.65 44.717 144.9 44.172 144.249 43.4982C143.618 42.8046 143.115 42.0119 142.74 41.1201C142.365 40.2283 142.177 39.287 142.177 38.2961C142.177 37.325 142.365 36.3936 142.74 35.5018C143.115 34.5902 143.618 33.7975 144.249 33.1237C144.9 32.4499 145.65 31.9148 146.498 31.5184Z" fill="white"/>
<path d="M186 48.2545V27.9215C186 27.6639 185.882 27.5153 185.645 27.4756C185.408 27.436 185.211 27.5153 185.053 27.7134L175.671 39.3068C175.513 39.4851 175.316 39.5743 175.079 39.5743C174.842 39.5743 174.645 39.4851 174.487 39.3068L165.135 27.7134C164.977 27.5153 164.78 27.436 164.543 27.4756C164.306 27.5153 164.188 27.6639 164.188 27.9215V48.2545C164.188 48.5121 164.277 48.7301 164.454 48.9084C164.632 49.0868 164.849 49.176 165.105 49.176H167.414C167.67 49.176 167.887 49.0868 168.065 48.9084C168.242 48.7301 168.331 48.5121 168.331 48.2545V39.0987C168.331 38.8411 168.39 38.6924 168.509 38.6528C168.627 38.6132 168.765 38.6924 168.923 38.8906L174.517 45.6385C174.675 45.8367 174.862 45.9358 175.079 45.9358C175.316 45.9358 175.513 45.8367 175.671 45.6385L181.294 38.8906C181.452 38.6726 181.58 38.5933 181.679 38.6528C181.797 38.6924 181.857 38.8411 181.857 39.0987V48.2545C181.857 48.5121 181.945 48.7301 182.123 48.9084C182.301 49.0868 182.518 49.176 182.774 49.176H185.112C185.349 49.176 185.556 49.0868 185.734 48.9084C185.911 48.7301 186 48.5121 186 48.2545Z" fill="white"/>
<path d="M107.386 73.1584C107.586 72.9023 107.777 72.6462 107.96 72.3901C108.087 72.1889 108.114 71.9877 108.042 71.7864C107.969 71.5852 107.823 71.4389 107.604 71.3474L105.583 70.5242C105.382 70.4327 105.155 70.4236 104.9 70.4968C104.663 70.5699 104.472 70.698 104.326 70.8809C104.235 70.9724 104.144 71.073 104.053 71.1828L103.78 71.4571C103.579 71.6584 103.37 71.8505 103.151 72.0334C102.951 72.198 102.732 72.3535 102.496 72.4999C102.259 72.6462 102.013 72.7743 101.758 72.884C101.503 72.9938 101.248 73.0944 100.993 73.1859C100.465 73.3505 99.9186 73.4328 99.354 73.4328C98.4251 73.4328 97.5691 73.2407 96.786 72.8566C95.9846 72.509 95.3016 72.0151 94.737 71.3748C94.1542 70.7346 93.6898 70.012 93.3438 69.2071C92.9977 68.4022 92.8247 67.5332 92.8247 66.6003C92.8247 65.6856 92.9977 64.8167 93.3438 63.9935C93.6898 63.1886 94.1542 62.466 94.737 61.8258C95.3016 61.2038 95.9846 60.7007 96.786 60.3166C97.6056 59.9507 98.4616 59.7678 99.354 59.7678C99.9186 59.7678 100.465 59.8501 100.993 60.0147C101.248 60.1062 101.503 60.2068 101.758 60.3166C102.013 60.4263 102.259 60.5544 102.496 60.7007C102.732 60.8471 102.951 61.0026 103.151 61.1672C103.37 61.3318 103.579 61.5148 103.78 61.716C103.871 61.8075 103.962 61.9081 104.053 62.0178L104.326 62.2922C104.472 62.4752 104.663 62.6032 104.9 62.6764C105.155 62.7313 105.382 62.713 105.583 62.6215L107.604 61.7983C107.823 61.7069 107.969 61.5697 108.042 61.3867C108.114 61.1855 108.087 60.9843 107.96 60.783C107.632 60.2891 107.24 59.8044 106.785 59.3287C106.475 59.0177 106.138 58.7251 105.774 58.4507C105.428 58.158 105.055 57.8927 104.654 57.6549C103.889 57.1976 103.051 56.8409 102.141 56.5847C101.212 56.3286 100.283 56.2006 99.354 56.2006C97.9334 56.2006 96.5948 56.475 95.3381 57.0238C94.0996 57.5726 92.9977 58.3135 92.0324 59.2464C91.1036 60.216 90.366 61.3227 89.8196 62.5666C89.2732 63.8289 89 65.1734 89 66.6003C89 68.0272 89.2732 69.3717 89.8196 70.634C90.366 71.8962 91.1036 72.9938 92.0324 73.9267C92.9795 74.878 94.0814 75.628 95.3381 76.1768C96.5948 76.7256 97.9334 77 99.354 77C100.283 77 101.212 76.8719 102.141 76.6158C102.596 76.4878 103.033 76.3323 103.452 76.1494C103.871 75.9664 104.271 75.7561 104.654 75.5182C105.474 75.0426 106.184 74.4847 106.785 73.8444C107.003 73.6249 107.204 73.3962 107.386 73.1584Z" fill="white"/>
<path fill-rule="evenodd" clip-rule="evenodd" d="M118.343 56.8591L108.863 75.875C108.772 76.0762 108.763 76.25 108.836 76.3963C108.927 76.5427 109.091 76.6158 109.327 76.6158H111.813C112.05 76.6158 112.278 76.5427 112.496 76.3963C112.733 76.25 112.906 76.067 113.016 75.8475L113.808 74.2286C113.899 74.0091 114.063 73.8261 114.3 73.6798C114.536 73.5334 114.773 73.4603 115.01 73.4603H122.769C123.005 73.4603 123.233 73.5334 123.452 73.6798C123.688 73.8261 123.861 73.9999 123.971 74.2011L124.79 75.8475C124.881 76.067 125.045 76.25 125.282 76.3963C125.519 76.5427 125.755 76.6158 125.992 76.6158H128.478C128.715 76.6158 128.87 76.5427 128.943 76.3963C129.034 76.25 129.025 76.0762 128.915 75.875L119.436 56.8591C119.326 56.6396 119.144 56.5299 118.889 56.5299C118.634 56.5299 118.452 56.6396 118.343 56.8591ZM120.911 70.1126H116.868C116.631 70.1126 116.467 70.0394 116.376 69.8931C116.285 69.7467 116.285 69.5638 116.376 69.3443L118.534 64.8167C118.625 64.5972 118.743 64.4874 118.889 64.4874C119.035 64.4874 119.153 64.5972 119.244 64.8167L121.375 69.3443C121.466 69.5455 121.466 69.7284 121.375 69.8931C121.302 70.0394 121.148 70.1126 120.911 70.1126Z" fill="white"/>
<path d="M135.483 64.0484V60.783C135.483 60.5452 135.565 60.344 135.729 60.1794C135.893 60.0147 136.093 59.9324 136.33 59.9324H145.537C145.774 59.9324 145.965 59.8501 146.11 59.6855C146.274 59.5208 146.356 59.3196 146.356 59.0818V57.3805C146.356 57.1427 146.274 56.9415 146.11 56.7768C145.965 56.6122 145.774 56.5299 145.537 56.5299H132.505C132.269 56.5299 132.068 56.6122 131.904 56.7768C131.741 56.9415 131.659 57.1427 131.659 57.3805V75.7652C131.659 76.003 131.741 76.2042 131.904 76.3689C132.068 76.5335 132.269 76.6158 132.505 76.6158H134.664C134.9 76.6158 135.092 76.5335 135.237 76.3689C135.401 76.2042 135.483 76.003 135.483 75.7652V69.2894C135.483 69.0516 135.565 68.8504 135.729 68.6857C135.893 68.5211 136.093 68.4388 136.33 68.4388H144.307C144.544 68.4388 144.735 68.3564 144.881 68.1918C145.045 68.0272 145.127 67.8259 145.127 67.5881V65.7497C145.127 65.5118 145.045 65.3106 144.881 65.146C144.735 64.9813 144.544 64.899 144.307 64.899H136.33C136.093 64.899 135.893 64.8167 135.729 64.6521C135.565 64.4874 135.483 64.2862 135.483 64.0484Z" fill="white"/>
<path d="M153.305 64.1033V60.783C153.305 60.5452 153.387 60.344 153.551 60.1794C153.715 60.0147 153.915 59.9324 154.152 59.9324H163.358C163.595 59.9324 163.795 59.8501 163.959 59.6855C164.123 59.5208 164.205 59.3196 164.205 59.0818V57.3805C164.205 57.1427 164.123 56.9415 163.959 56.7768C163.795 56.6122 163.595 56.5299 163.358 56.5299H150.327C150.09 56.5299 149.89 56.6122 149.726 56.7768C149.562 56.9415 149.48 57.1427 149.48 57.3805V75.7652C149.48 76.003 149.562 76.2042 149.726 76.3689C149.89 76.5335 150.09 76.6158 150.327 76.6158H163.358C163.595 76.6158 163.795 76.5335 163.959 76.3689C164.123 76.2042 164.205 76.003 164.205 75.7652V74.0091C164.205 73.7712 164.123 73.57 163.959 73.4054C163.795 73.2407 163.595 73.1584 163.358 73.1584H154.152C153.915 73.1584 153.715 73.0761 153.551 72.9115C153.387 72.7468 153.305 72.5456 153.305 72.3078V69.2894C153.305 69.0516 153.387 68.8504 153.551 68.6857C153.715 68.5211 153.915 68.4388 154.152 68.4388H162.129C162.366 68.4388 162.566 68.3564 162.73 68.1918C162.894 68.0272 162.976 67.8259 162.976 67.5881V65.8045C162.976 65.5667 162.894 65.3655 162.73 65.2009C162.566 65.0362 162.366 64.9539 162.129 64.9539H154.152C153.915 64.9539 153.715 64.8716 153.551 64.7069C153.387 64.5423 153.305 64.3411 153.305 64.1033Z" fill="white"/>
<g filter="url(#filter0_d_193_225)">
<path d="M52.5 78.9635C37.9038 78.9635 26.0365 67.0962 26.0365 52.5C26.0365 37.9038 37.9038 26.0365 52.5 26.0365C67.0962 26.0365 78.9635 37.9038 78.9635 52.5C78.9635 67.0962 67.0962 78.9635 52.5 78.9635Z" fill="white"/>
<path d="M52.5 27.0519C66.5462 27.0519 77.9481 38.4538 77.9481 52.5C77.9481 66.5462 66.5462 77.9481 52.5 77.9481C38.4538 77.9481 27.0519 66.5462 27.0519 52.5C27.0519 38.4538 38.4538 27.0519 52.5 27.0519ZM52.5 25C37.3327 25 25 37.3327 25 52.5C25 67.6673 37.3327 80 52.5 80C67.6673 80 80 67.6673 80 52.5C80 37.3327 67.6673 25 52.5 25Z" fill="#DBDBDB"/>
<path d="M38.0731 44.0595C38.0731 47.9942 34.8789 51.1884 30.9443 51.1884C29.5693 51.1884 28.2577 50.7865 27.1577 50.1095C27.6019 45.2442 29.4423 40.7384 32.2558 37.0576C35.5558 37.6711 38.0731 40.5692 38.0731 44.0595Z" fill="#DBDBDB"/>
<path d="M69.4019 68.7463C71.1894 68.7463 72.6385 67.2972 72.6385 65.5097C72.6385 63.7222 71.1894 62.2732 69.4019 62.2732C67.6145 62.2732 66.1654 63.7222 66.1654 65.5097C66.1654 67.2972 67.6145 68.7463 69.4019 68.7463Z" fill="#DBDBDB"/>
<path d="M60.0519 76.848C54.8481 78.4346 49.2423 78.3076 44.1231 76.4884C43.8481 74.0769 44.6731 71.5807 46.5557 69.7826C49.7711 66.6942 54.8692 66.8211 57.9365 70.0365C59.7346 71.9192 60.4327 74.4365 60.0519 76.848Z" fill="#DBDBDB"/>
<path d="M56.1808 49.7924C62.326 49.7924 67.3077 44.8107 67.3077 38.6655C67.3077 32.5203 62.326 27.5386 56.1808 27.5386C50.0355 27.5386 45.0538 32.5203 45.0538 38.6655C45.0538 44.8107 50.0355 49.7924 56.1808 49.7924Z" fill="#DBDBDB"/>
</g>
<defs>
<filter id="filter0_d_193_225" x="0" y="0" width="105" height="105" filterUnits="userSpaceOnUse" color-interpolation-filters="sRGB">
<feFlood flood-opacity="0" result="BackgroundImageFix"/>
<feColorMatrix in="SourceAlpha" type="matrix" values="0 0 0 0 0 0 0 0 0 0 0 0 0 0 0 0 0 0 127 0" result="hardAlpha"/>
<feOffset/>
<feGaussianBlur stdDeviation="12.5"/>
<feComposite in2="hardAlpha" operator="out"/>
<feColorMatrix type="matrix" values="0 0 0 0 0.992157 0 0 0 0 1 0 0 0 0 0.623529 0 0 0 0.3 0"/>
<feBlend mode="normal" in2="BackgroundImageFix" result="effect1_dropShadow_193_225"/>
<feBlend mode="normal" in="SourceGraphic" in2="effect1_dropShadow_193_225" result="shape"/>
</filter>
</defs>
</svg>
